<svg width="960" height="443.09999999999997" viewBox="0 0 960 443.09999999999997" xmlns="http://www.w3.org/2000/svg" style="background:#fdf8f2"><rect width="960" height="443.09999999999997" fill="#fdf8f2"></rect><g><text x="480" y="46" font-family="&#x27;Heebo&#x27;, &#x27;Arial Hebrew&#x27;, &#x27;Noto Sans Hebrew&#x27;, sans-serif" font-size="28" font-weight="700" fill="#3d2c1e" direction="rtl" text-anchor="middle">‏בוררות מול תביעה בבית משפט</text></g><g><g><path d="M523.7185105711221 67.22377863824367 L914.6186466604471 72.29294644296169 L917.2177482038736 123.92354918420315 L523.0426706701517 126.95591889321804" fill="#c1542f" stroke="none"></path><path d="M523.6709304876633 68.96859079377506 C602.3125996397152 67.31280175347138, 679.8468197055197 66.67999631101173, 917.506817048642 71.09530380022426 M525.0502546338769 70.73869394974326 C627.6114434365858 72.97514556494056, 731.7327243134146 73.24592899763705, 916.2409070077276 70.24050730279369 M916.9761803716422 68.00271953642368 C915.4256345710754 83.64562650844455, 918.7450068435669 96.80497940331698, 916.2746292203665 128.2270963102579 M917.4288530066609 69.36348453015088 C918.0079205128551 80.56192254647613, 916.520871553123 93.11207412481308, 914.7530088618398 124.49076986759901 M915.2168247335283 125.40412782419178 C818.5705491908515 128.98245158737674, 721.8545305877084 131.1874022261134, 526.4045958653713 124.87346213922984 M915.2273547338729 125.59873573455566 C787.6092193957217 127.98592453048373, 660.0699317175497 127.22806305066801, 525.7601470149087 126.11681905756947 M527.9411002248526 124.64895385801792 C524.4929056384563 110.47980658486485, 522.5772254207134 97.69605054706335, 527.8406416028738 70.61081232130527 M526.046193189919 127.59147057980299 C524.6146439217924 109.74836174324155, 523.8437051915525 92.25218131244182, 523.9155547335744 71.54254436939955" fill="none" stroke="#c1542f" stroke-width="1.8"></path></g><g><text x="720.5" y="105" font-family="&#x27;Heebo&#x27;, &#x27;Arial Hebrew&#x27;, &#x27;Noto Sans Hebrew&#x27;, sans-serif" font-size="20" font-weight="800" fill="#ffffff" direction="rtl" text-anchor="middle">‏בוררות</text></g><g><g><path d="M524.9975176185369 145.7729643970728 L917.9644111007452 145.6882440716028 L918.0295803397894 218.3725819736719 L526.0044511169195 219.15986482203004" fill="#f5ece1" stroke="none"></path><path d="M525.2664423327722 144.76254284295842 C601.7209993995256 149.2800638248523, 682.5337034558663 146.98460899408624, 916.02980356107 145.8255063337071 M525.7041472697948 143.36998794290545 C645.1265181543097 143.4867401399676, 765.2878738556909 142.69726676779507, 915.1607325862128 143.7804559579895 M915.4936339527369 142.80453256070615 C918.0174507645979 162.8066880188044, 917.149737885417 187.20292001498865, 914.3243820339442 219.1451605170965 M915.1814216777682 144.0058075502515 C914.2202491376385 169.40685275741853, 916.0085008714184 195.9940872346051, 916.0550147697329 219.31794977933168 M917.1762660758804 218.70687970698629 C808.2324735047524 222.2450295181612, 697.9316634061806 223.43838906272228, 526.1002140156189 221.5447741787164 M915.3326474364546 219.03122622425943 C806.2820323262029 221.14870557747287, 697.3628299825831 221.74677175111333, 525.6465221448478 219.89469842928244 M525.6351670414209 217.44825643002986 C522.735884919177 202.55562651717105, 528.0764178896054 185.70531532989816, 523.3344026714564 147.15135386884214 M523.5436553165316 221.28578429967163 C526.3129517493501 204.30295884183607, 527.1613871989504 185.76501406027003, 525.3259245559573 145.5042406156659" fill="none" stroke="#c1542f" stroke-width="1.8"></path></g><circle cx="896" cy="166" r="5" fill="#c1542f"></circle><g><text x="840.4" y="172" font-family="&#x27;Heebo&#x27;, &#x27;Arial Hebrew&#x27;, &#x27;Noto Sans Hebrew&#x27;, sans-serif" font-size="16" font-weight="700" fill="#3d2c1e" direction="rtl" text-anchor="middle">‏הליך מהיר</text></g><g><text x="799.27" y="198.8" font-family="&#x27;Heebo&#x27;, &#x27;Arial Hebrew&#x27;, &#x27;Noto Sans Hebrew&#x27;, sans-serif" font-size="13.5" font-weight="400" fill="#7a6552" direction="rtl" text-anchor="middle">‏הכרעה תוך חודשים ספורים</text></g></g><g><g><path d="M525.6370211422443 231.34755727648735 L916.4372933208942 235.08589288592339 L915.2354964077473 308.4470983684063 L524.2853413403034 308.11183778643607" fill="#f5ece1" stroke="none"></path><path d="M524.2030296153265 233.4983502275501 C603.2863679194306 233.82535683814277, 680.1548080510396 232.55974595322348, 917.152465457284 234.02943896044852 M524.1699249477537 234.24680357948654 C652.9534711931715 235.0811221186811, 781.1348643068291 235.62268898407407, 915.5512296954554 233.25043028558738 M914.7523607432843 232.90543907284734 C917.2276609175175 259.00002562256526, 917.4664054625005 280.1275040179863, 913.3492584407329 310.6541926205158 M917.2577060133219 234.02696906030178 C917.7999789651661 249.36822330890223, 918.025881045702 264.2129046815261, 915.1060177236795 307.981539735198 M916.2948181070566 310.0694242883835 C801.2022670217029 313.58748712355344, 685.9702298154167 314.2750511210267, 525.9480230907426 309.0080929184597 M915.3852937877456 309.5280557891113 C816.5490231114434 308.8026800497674, 716.0092791150996 309.148125730136, 525.5897097098174 308.7030537951389 M527.6822004497051 309.89790771603583 C528.2853019030124 286.4387518206052, 524.4539414675266 259.3503783958778, 527.4812832057476 231.72162464261055 M525.492386379838 310.98294115960596 C524.7153820992202 278.9595506102033, 523.1735046387405 250.83001687232402, 524.4311094671488 235.1850887387991" fill="none" stroke="#c1542f" stroke-width="1.8"></path></g><circle cx="896" cy="255.7" r="5" fill="#c1542f"></circle><g><text x="840.4" y="261.7" font-family="&#x27;Heebo&#x27;, &#x27;Arial Hebrew&#x27;, &#x27;Noto Sans Hebrew&#x27;, sans-serif" font-size="16" font-weight="700" fill="#3d2c1e" direction="rtl" text-anchor="middle">‏דיסקרטיות</text></g><g><text x="809.8" y="288.5" font-family="&#x27;Heebo&#x27;, &#x27;Arial Hebrew&#x27;, &#x27;Noto Sans Hebrew&#x27;, sans-serif" font-size="13.5" font-weight="400" fill="#7a6552" direction="rtl" text-anchor="middle">‏ההליך חסוי ולא פומבי</text></g></g><g><g><path d="M526.2765246659517 323.3221501559019 L914.9101755410433 324.4835417002439 L918.8414124757052 398.52161476314063 L522.5662315636873 397.06381075084204" fill="#f5ece1" stroke="none"></path><path d="M523.139616897881 322.23415761214176 C604.8517364393357 325.64781923383316, 681.4982499262128 325.41205229476066, 914.5527900734982 322.23337158718994 M524.4968712657127 323.26245057606764 C660.7804242320335 326.67550409739465, 798.8430233979674 326.68694256035315, 915.941726804698 322.7204046131853 M914.0110875338316 323.0063455849886 C916.4378710704372 348.79336322632616, 917.7830730395839 373.05208802098406, 918.7741348475217 402.1632247239351 M916.1339903488755 324.04813057035204 C915.7573087926938 344.46959386038594, 917.6208612199857 365.91172212844714, 917.3570206776261 399.8451296910643 M915.4133701382327 397.70963158978077 C794.1720605386535 401.2076074489456, 674.0087962246529 401.3893758993311, 525.7958321658664 400.19374893820293 M915.4379401390365 400.02488535396316 C824.9548452566839 401.872655264462, 734.6557282476163 401.9654804515587, 525.5328972747869 399.3725778009954 M523.3292338579893 395.94755900204177 C527.4347188868478 385.4618771240394, 527.2314650454476 369.6754414618574, 525.2281637400389 322.69189541637894 M524.2411174431443 400.68009801954025 C525.5402124490902 371.95614237857046, 524.8080220785305 346.175019684378, 523.5362943783402 324.86593686193225" fill="none" stroke="#c1542f" stroke-width="1.8"></path></g><circle cx="896" cy="345.4" r="5" fill="#c1542f"></circle><g><text x="836" y="351.4" font-family="&#x27;Heebo&#x27;, &#x27;Arial Hebrew&#x27;, &#x27;Noto Sans Hebrew&#x27;, sans-serif" font-size="16" font-weight="700" fill="#3d2c1e" direction="rtl" text-anchor="middle">‏עלות גבוהה</text></g><g><text x="813.31" y="378.2" font-family="&#x27;Heebo&#x27;, &#x27;Arial Hebrew&#x27;, &#x27;Noto Sans Hebrew&#x27;, sans-serif" font-size="13.5" font-weight="400" fill="#7a6552" direction="rtl" text-anchor="middle">‏שכר הבורר על הצדדים</text></g></g></g><g><g><path d="M42.71851057112217 67.22377863824367 L433.6186466604471 72.29294644296169 L436.2177482038736 123.92354918420315 L42.04267067015171 126.95591889321804" fill="#8a9a5b" stroke="none"></path><path d="M42.67093048766327 68.96859079377506 C121.31259963971532 67.31280175347138, 198.8468197055198 66.67999631101173, 436.50681704864206 71.09530380022426 M44.050254633876854 70.73869394974326 C146.61144343658577 72.97514556494056, 250.73272431341456 73.24592899763705, 435.2409070077277 70.24050730279369 M435.9761803716421 68.00271953642368 C434.4256345710755 83.64562650844455, 437.7450068435669 96.80497940331698, 435.2746292203665 128.2270963102579 M436.4288530066609 69.36348453015088 C437.00792051285504 80.56192254647613, 435.52087155312296 93.11207412481308, 433.75300886183976 124.49076986759901 M434.2168247335283 125.40412782419178 C337.57054919085147 128.98245158737674, 240.85453058770835 131.1874022261134, 45.40459586537133 124.87346213922984 M434.2273547338728 125.59873573455566 C306.60921939572165 127.98592453048373, 179.0699317175498 127.22806305066801, 44.760147014908696 126.11681905756947 M46.94110022485256 124.64895385801792 C43.49290563845634 110.47980658486485, 41.577225420713425 97.69605054706335, 46.8406416028738 70.61081232130527 M45.046193189918995 127.59147057980299 C43.614643921792506 109.74836174324155, 42.84370519155264 92.25218131244182, 42.91555473357439 71.54254436939955" fill="none" stroke="#8a9a5b" stroke-width="1.8"></path></g><g><text x="239.5" y="105" font-family="&#x27;Heebo&#x27;, &#x27;Arial Hebrew&#x27;, &#x27;Noto Sans Hebrew&#x27;, sans-serif" font-size="20" font-weight="800" fill="#ffffff" direction="rtl" text-anchor="middle">‏בית משפט</text></g><g><g><path d="M43.997517618536946 145.7729643970728 L436.9644111007452 145.6882440716028 L437.0295803397894 218.3725819736719 L45.00445111691952 219.15986482203004" fill="#f5ece1" stroke="none"></path><path d="M44.26644233277212 144.76254284295842 C120.72099939952552 149.2800638248523, 201.53370345586632 146.98460899408624, 435.0298035610701 145.8255063337071 M44.70414726979476 143.36998794290545 C164.1265181543096 143.4867401399676, 284.2878738556909 142.69726676779507, 434.1607325862128 143.7804559579895 M434.49363395273684 142.80453256070615 C437.017450764598 162.8066880188044, 436.14973788541704 187.20292001498865, 433.3243820339441 219.1451605170965 M434.18142167776824 144.0058075502515 C433.2202491376385 169.40685275741853, 435.0085008714184 195.9940872346051, 435.05501476973296 219.31794977933168 M436.1762660758805 218.70687970698629 C327.2324735047525 222.2450295181612, 216.9316634061806 223.43838906272228, 45.100214015618874 221.5447741787164 M434.3326474364547 219.03122622425943 C325.28203232620285 221.14870557747287, 216.36282998258304 221.74677175111333, 44.64652214484782 219.89469842928244 M44.635167041420935 217.44825643002986 C41.735884919176996 202.55562651717105, 47.07641788960546 185.70531532989816, 42.33440267145634 147.15135386884214 M42.543655316531655 221.28578429967163 C45.31295174935013 204.30295884183607, 46.16138719895035 185.76501406027003, 44.325924555957315 145.5042406156659" fill="none" stroke="#8a9a5b" stroke-width="1.8"></path></g><circle cx="415" cy="166" r="5" fill="#8a9a5b"></circle><g><text x="355" y="172" font-family="&#x27;Heebo&#x27;, &#x27;Arial Hebrew&#x27;, &#x27;Noto Sans Hebrew&#x27;, sans-serif" font-size="16" font-weight="700" fill="#3d2c1e" direction="rtl" text-anchor="middle">‏הליך ממושך</text></g><g><text x="328.8" y="198.8" font-family="&#x27;Heebo&#x27;, &#x27;Arial Hebrew&#x27;, &#x27;Noto Sans Hebrew&#x27;, sans-serif" font-size="13.5" font-weight="400" fill="#7a6552" direction="rtl" text-anchor="middle">‏שנים עד פסק דין חלוט</text></g></g><g><g><path d="M44.637021142244336 231.34755727648735 L435.43729332089424 235.08589288592339 L434.2354964077473 308.4470983684063 L43.28534134030342 308.11183778643607" fill="#f5ece1" stroke="none"></path><path d="M43.20302961532654 233.4983502275501 C122.28636791943063 233.82535683814277, 199.1548080510396 232.55974595322348, 436.1524654572841 234.02943896044852 M43.169924947753714 234.24680357948654 C171.95347119317154 235.0811221186811, 300.1348643068291 235.62268898407407, 434.55122969545533 233.25043028558738 M433.7523607432842 232.90543907284734 C436.22766091751754 259.00002562256526, 436.46640546250046 280.1275040179863, 432.34925844073297 310.6541926205158 M436.25770601332187 234.02696906030178 C436.7999789651662 249.36822330890223, 437.0258810457021 264.2129046815261, 434.10601772367954 307.981539735198 M435.2948181070566 310.0694242883835 C320.202267021703 313.58748712355344, 204.97022981541673 314.2750511210267, 44.94802309074265 309.0080929184597 M434.38529378774564 309.5280557891113 C335.5490231114434 308.8026800497674, 235.00927911509967 309.148125730136, 44.589709709817384 308.7030537951389 M46.68220044970512 309.89790771603583 C47.28530190301239 286.4387518206052, 43.453941467526555 259.3503783958778, 46.4812832057476 231.72162464261055 M44.49238637983799 310.98294115960596 C43.71538209922016 278.9595506102033, 42.173504638740425 250.83001687232402, 43.43110946714878 235.1850887387991" fill="none" stroke="#8a9a5b" stroke-width="1.8"></path></g><circle cx="415" cy="255.7" r="5" fill="#8a9a5b"></circle><g><text x="368.2" y="261.7" font-family="&#x27;Heebo&#x27;, &#x27;Arial Hebrew&#x27;, &#x27;Noto Sans Hebrew&#x27;, sans-serif" font-size="16" font-weight="700" fill="#3d2c1e" direction="rtl" text-anchor="middle">‏פומביות</text></g><g><text x="325.28999999999996" y="288.5" font-family="&#x27;Heebo&#x27;, &#x27;Arial Hebrew&#x27;, &#x27;Noto Sans Hebrew&#x27;, sans-serif" font-size="13.5" font-weight="400" fill="#7a6552" direction="rtl" text-anchor="middle">‏הדיון וההכרעה פומביים</text></g></g><g><g><path d="M45.276524665951726 323.3221501559019 L433.91017554104326 324.4835417002439 L437.84141247570517 398.52161476314063 L41.566231563687325 397.06381075084204" fill="#f5ece1" stroke="none"></path><path d="M42.13961689788097 322.23415761214176 C123.85173643933572 325.64781923383316, 200.49824992621285 325.41205229476066, 433.5527900734981 322.23337158718994 M43.49687126571266 323.26245057606764 C179.78042423203345 326.67550409739465, 317.8430233979673 326.68694256035315, 434.9417268046979 322.7204046131853 M433.0110875338316 323.0063455849886 C435.4378710704371 348.79336322632616, 436.7830730395838 373.05208802098406, 437.7741348475218 402.1632247239351 M435.1339903488755 324.04813057035204 C434.75730879269395 344.46959386038594, 436.6208612199858 365.91172212844714, 436.3570206776261 399.8451296910643 M434.41337013823266 397.70963158978077 C313.17206053865345 401.2076074489456, 193.00879622465285 401.3893758993311, 44.79583216586642 400.19374893820293 M434.4379401390366 400.02488535396316 C343.95484525668394 401.872655264462, 253.65572824761625 401.9654804515587, 44.532897274786954 399.3725778009954 M42.32923385798931 395.94755900204177 C46.4347188868478 385.4618771240394, 46.23146504544765 369.6754414618574, 44.22816374003887 322.69189541637894 M43.24111744314432 400.68009801954025 C44.540212449090184 371.95614237857046, 43.80802207853049 346.175019684378, 42.536294378340244 324.86593686193225" fill="none" stroke="#8a9a5b" stroke-width="1.8"></path></g><circle cx="415" cy="345.4" r="5" fill="#8a9a5b"></circle><g><text x="350.6" y="351.4" font-family="&#x27;Heebo&#x27;, &#x27;Arial Hebrew&#x27;, &#x27;Noto Sans Hebrew&#x27;, sans-serif" font-size="16" font-weight="700" fill="#3d2c1e" direction="rtl" text-anchor="middle">‏אגרה מופחתת</text></g><g><text x="321.78" y="378.2" font-family="&#x27;Heebo&#x27;, &#x27;Arial Hebrew&#x27;, &#x27;Noto Sans Hebrew&#x27;, sans-serif" font-size="13.5" font-weight="400" fill="#7a6552" direction="rtl" text-anchor="middle">‏עלות ההליך נמוכה יחסית</text></g></g></g><g><path d="M467.64257844541237 71.28720416353207 C467.64257844541237 71.28720416353207, 467.64257844541237 71.28720416353207, 467.64257844541237 71.28720416353207 M467.64257844541237 71.28720416353207 C467.64257844541237 71.28720416353207, 467.64257844541237 71.28720416353207, 467.64257844541237 71.28720416353207 M454.5728096364008 93.79894646566156 C464.37196952722655 86.934327877508, 475.0653781774414 73.12672964751711, 478.7371966133562 70.35957568869017 M457.02400374933495 92.98997191108558 C458.9434011134783 90.11378087820123, 465.1384337753469 83.32689207632508, 475.7669415001494 69.975006083064 M455.9865358328692 104.83643261271229 C464.405850080938 94.08549614208579, 474.2314343476917 81.48113705447426, 484.7976453491146 67.21938416708986 M455.8120686739928 102.73220649196466 C463.97391975379696 94.89449721004934, 471.6969340037152 87.20818333969707, 485.4375072004864 69.99081173644196 M455.5567403480584 111.31844980837882 C466.9984864670399 101.8431035801913, 478.37392799028714 86.12258032700475, 488.10736780283537 72.27132231845405 M458.1880673388192 111.70362082598835 C470.5785400970217 98.23699909918929, 482.6414818751459 82.15287600962215, 490.8020893937492 72.37723732004758 M461.71619037789367 115.71050852170032 C469.62968863688525 108.28449061314377, 473.9347758059623 96.30484891682259, 496.3950599983776 78.5006679252625 M460.6806226526302 116.2208423255552 C472.1786234822225 103.12259731663848, 480.9727169055503 90.56890553199646, 496.2643413791874 76.98220099722003 M464.7605437433002 122.47147859671621 C476.85105460910916 106.03585242567972, 486.6987231940559 95.63573195151534, 498.3345134396472 80.89710604610913 M463.7462872117413 121.294443715564 C473.014911498111 112.59183097087367, 479.79894012051346 101.51240393408077, 500.7943009985977 77.7023641449126 M471.1911440351558 124.21754135135184 C478.25068260649334 108.85158251092047, 491.13605577859903 95.63940713872955, 504.31923316857916 84.48280985525585 M468.6185884449211 124.38664513229946 C481.5088890935268 111.5521896449801, 492.7573629370402 97.4324257778873, 502.60925869430554 83.50496219324656 M475.6729893533763 129.25207579942384 C483.0086307098044 119.38341461994058, 489.796839092148 110.04962445199506, 503.71735096807015 88.96697358107372 M474.7722473524761 127.9349503454376 C487.65797042218963 111.8001226575762, 499.5226446455151 99.07749793551469, 505.7349207120983 92.27608756395234 M483.52146842287715 126.08432032974855 C486.9514938448455 123.23195676081801, 496.80669680700476 111.33708550369076, 507.96594827500735 100.5474412467109 M481.7161646222123 126.66455843715414 C491.0355053440658 116.56526301232583, 501.2955090804497 104.22833061150055, 507.4059820142538 98.8160684110375 M494.13586216275564 121.34283480409536 C497.8629675315734 121.36932058711925, 498.43786469044227 119.83248493266831, 504.14618367125195 114.77119565633681 M494.7342481842729 121.79447946168486 C496.87070277638867 119.27835107410266, 499.5577118147901 117.15872371152291, 502.226975730815 112.92470282675323" fill="none" stroke="#fdf8f2" stroke-width="1.4"></path><path d="M485.5836265950355 69.05824836290284 C490.9707696052996 70.24173180264151, 498.51990122788294 74.6761014125914, 502.29093544006844 79.79611037357098 C506.06196965225394 84.91611933455057, 508.6929721787325 93.25365700052298, 508.20983186814846 99.77830212878037 C507.72669155756444 106.30294725703776, 503.49863577608795 114.26987406832313, 499.3920935765645 118.94398114311534 C495.28555137704103 123.61808821790754, 489.4438384882807 126.9537508864321, 483.5705786710077 127.82294457753363 C477.6973188537347 128.69213826863515, 469.01265488786925 127.52766254701143, 464.1525346729266 124.15914328972448 C459.29241445798397 120.79062403243753, 455.7089028218382 113.83917769044481, 454.40985738135186 107.61182903381197 C453.1108119408655 101.38448037717913, 454.1327564977468 92.87222270710635, 456.3582620300086 86.79505134992739 C458.58376756227034 80.71787999274844, 461.63753610808084 73.75652845246395, 467.7628905749223 71.14880089073829 C473.8882450417638 68.54107332901262, 488.10847544186083 70.62674260015342, 493.1103888310574 71.14868597957337 C498.1123022202539 71.67062935899332, 498.17176691605584 73.7158882781906, 497.7743709101017 74.28046116725798 M486.58415807862605 69.84190931084471 C492.2537782764458 71.13935078291925, 498.725203297356 75.67983196200994, 502.1853093390052 80.49201226686678 C505.64541538065436 85.30419257172362, 507.8288491853969 92.46695489409655, 507.3447943285212 98.71499113998573 C506.86073947164545 104.96302738587491, 503.20142385696056 113.44826086402394, 499.28098019775086 117.98022974220189 C495.36053653854117 122.51219862037983, 489.1616383246851 124.78736900956123, 483.8221323732631 125.9068044090534 C478.48262642184113 127.02623980854555, 471.79753064688254 127.40216117400445, 467.2439444892188 124.69684213915482 C462.69035833155505 121.9915231043052, 458.9260011822106 115.6427208998056, 456.5006154272806 109.67489019995567 C454.0752296723506 103.70705950010574, 451.3044577084952 95.04278334501254, 452.6916299596386 88.8898579400553 C454.078802210782 82.73693253509805, 459.22656598060524 76.07821769013027, 464.82364893414103 72.75733777021219 C470.4207318876768 69.4364578502941, 482.89064113168115 69.29924463686719, 486.27412768085327 68.96457842054681 C489.6576142300254 68.62991220422644, 485.4918614884601 70.68804775440111, 485.12456822917363 70.74934047228993" fill="none" stroke="#3d2c1e" stroke-width="1.8"></path></g><text x="480" y="105" text-anchor="middle" font-size="19" font-weight="800" fill="#3d2c1e" font-family="&#x27;Heebo&#x27;, sans-serif">מול</text></svg>