<svg width="960" height="736" viewBox="0 0 960 736" xmlns="http://www.w3.org/2000/svg" style="background:#fdf8f2"><rect width="960" height="736" fill="#fdf8f2"></rect><defs><marker id="cycArrow" markerWidth="10" markerHeight="10" refX="7" refY="4" orient="auto"><path d="M0,0 L8,4 L0,8 z" fill="#3d2c1e"></path></marker></defs><g><text x="480" y="46" font-family="&#x27;Heebo&#x27;, &#x27;Arial Hebrew&#x27;, &#x27;Noto Sans Hebrew&#x27;, sans-serif" font-size="28" font-weight="700" fill="#3d2c1e" direction="rtl" text-anchor="middle">‏מחזור שיפור מתמיד</text></g><path d="M 408.64192071457524 243.20943544534603 A 175 175 0 0 0 320.20943544534606 331.64192071457524" fill="none" stroke="#3d2c1e" stroke-width="2.4" marker-end="url(#cycArrow)" stroke-dasharray="7 5"></path><path d="M 320.209435445346 474.35807928542476 A 175 175 0 0 0 408.6419207145752 562.7905645546539" fill="none" stroke="#3d2c1e" stroke-width="2.4" marker-end="url(#cycArrow)" stroke-dasharray="7 5"></path><path d="M 551.3580792854248 562.790564554654 A 175 175 0 0 0 639.7905645546539 474.3580792854248" fill="none" stroke="#3d2c1e" stroke-width="2.4" marker-end="url(#cycArrow)" stroke-dasharray="7 5"></path><path d="M 639.790564554654 331.6419207145753 A 175 175 0 0 0 551.3580792854248 243.2094354453461" fill="none" stroke="#3d2c1e" stroke-width="2.4" marker-end="url(#cycArrow)" stroke-dasharray="7 5"></path><g><g><path d="M457.6574409118182 188.26024131992273 C463.6134298590232 184.17211179842857, 473.1731744506928 183.5466357611871, 480.38676392710823 183.65279534349395 C487.6003534035237 183.7589549258008, 494.36984644362434 185.52834874575498, 500.9389777703108 188.89719881376374 C507.5081090969973 192.2660488817725, 516.0044199213012 197.49709969810064, 519.8015518872271 203.86589575154653 C523.598683853153 210.23469180499242, 524.0804753350897 219.29137296044976, 523.7217695658665 227.1099751344391 C523.3630637966432 234.92857730842846, 520.912935294586 244.33329049535195, 517.6493172718875 250.7775087954826 C514.3856992491891 257.22172709561323, 510.3980979400772 261.91480308917903, 504.1400614296758 265.77528493522294 C497.88202491927444 269.63576678126685, 487.5598989334978 273.6386925032231, 480.10109820947923 273.94039987174614 C472.6422974854607 274.24210724026915, 466.0108049058258 271.29294056249, 459.38725708556456 267.5855291463609 C452.7637092653033 263.8781177302318, 444.18511170562374 258.3840635924149, 440.3598112879118 251.6959313749714 C436.5345108701998 245.00779915752784, 436.28605447397297 234.86904030415766, 436.43545457929264 227.45673584169964 C436.5848546846123 220.04443137924162, 435.7986909554249 214.53747847605638, 441.2562119198299 207.22210460022328 C446.71373288423496 199.90673072439017, 462.73839373090823 187.5860226946563, 469.18058036572273 183.56449258670108 C475.62276700053724 179.54296247874586, 479.76675248312887 182.44632115531095, 479.90933172871684 183.09292395249201 M501.9949787779886 186.75863718506173 C508.9003426538139 189.36784398812227, 514.8386693689332 198.32144443644754, 518.4449394151277 204.93086243171996 C522.0512094613222 211.54028042699238, 523.3873954619195 218.8374985972055, 523.6325990551558 226.41514515669624 C523.877802648392 233.99279171618699, 523.2602434570177 244.05859403455756, 519.9161609745453 250.39674178866449 C516.5720784920728 256.7348895427714, 510.1827622153514 260.61306519431196, 503.56810416032084 264.4440316813378 C496.9534461052903 268.2749981683636, 487.3736103372565 272.97893337694506, 480.228212644362 273.38254071081946 C473.08281495146747 273.78614804469385, 467.14015490196545 270.54428446023775, 460.6957180029538 266.86567568458395 C454.2512811039422 263.18706690893015, 445.9933380919217 257.7106984927265, 441.5615912502922 251.3108880568966 C437.12984440866273 244.9110776210667, 434.1839386965234 235.5336636007197, 434.1052369531769 228.46681306960457 C434.02653520983046 221.39996253848943, 437.210212587917 215.4251510078634, 441.0893807902133 208.90978487020584 C444.96854899250957 202.39441873254827, 451.27418048505695 193.76802621952126, 457.3802461669548 189.37461624365915 C463.48631184885267 184.98120626779703, 470.7900268051857 183.04956944888878, 477.72577488160033 182.5493250150331 C484.661522958015 182.04908058117744, 495.42252544756997 185.57771309486236, 498.9947346254427 186.3731496405251 C502.5669438033154 187.16858618618784, 499.50177421689784 186.15614195588967, 499.1590299488366 187.3219442890096" fill="#c1542f" stroke="none"></path><path d="M494.3836578298906 184.12594828219864 C501.21125872369885 185.7896627216778, 508.5720085247151 192.94604614356192, 513.302588989657 198.8098642334151 C518.0331694545989 204.6736823232683, 521.1961933631177 212.10105083815625, 522.7671406195421 219.30885682131785 C524.3380878759666 226.51666280447944, 524.9456446680979 234.79040522194532, 522.728272528204 242.05670013238466 C520.5109003883101 249.322995042824, 515.0167957923181 257.8243176731426, 509.46290778017897 262.9066262839539 C503.90901976803974 267.98893489476524, 496.72111355691055 271.3932541390891, 489.4049444553687 272.5505517972524 C482.08877535382686 273.7078494554157, 472.60074441790755 272.5572037147082, 465.565893170928 269.85041223293393 C458.53104192394846 267.1436207511597, 452.20925660555145 261.83639028627147, 447.19583697349145 256.3098029066068 C442.18241734143146 250.78321552694217, 436.8593777902697 244.10742765968175, 435.48537537856794 236.69088795494602 C434.11137296686616 229.2743482502103, 436.2532578023963 218.83074800889568, 438.9518225032809 211.8105646781924 C441.65038720416544 204.79038134748913, 446.0041434650503 199.4679080924184, 451.67676358387513 194.56978797072634 C457.3493837027 189.67166784903426, 463.74145066814793 183.05491048040292, 472.98754321623005 182.4218439480399 C482.23363576431217 181.7887774156769, 500.2750433151684 187.59863369699394, 507.15331887236795 190.7713887765483 C514.0315944295676 193.94414385610264, 514.9936378357162 200.6771571711605, 514.2571965594275 201.45837442536603 M454.76467425055483 189.7395525747979 C460.47071718590166 185.811408808141, 471.8553740934069 183.74598252697163, 479.25251360484395 183.5574138425013 C486.649653116281 183.36884515803095, 492.3710827531285 185.01617128618838, 499.1475113191771 188.60814046797591 C505.9239398852257 192.20010964976345, 515.7044557614076 198.63399869844392, 519.9110850011356 205.10922893322652 C524.1177142408635 211.58445916800912, 524.5003194884542 220.40800800615636, 524.3872867575449 227.45952187667157 C524.2742540266355 234.51103574718678, 522.8108316324875 240.62055191416118, 519.2328886156794 247.41831215631777 C515.6549455988712 254.21607239847435, 509.2620720723798 263.6863916528491, 502.91962865669603 268.24608332961105 C496.5771852410123 272.805775006373, 488.56754097691083 274.78737677803014, 481.1782281215769 274.7764622168893 C473.788915266243 274.76554765574843, 465.415928988532 272.0276104095128, 458.5837515246925 268.18059596276595 C451.751574060853 264.3335815160191, 444.0817774303434 258.0284003113576, 440.18516333853984 251.6943755364081 C436.2885492467363 245.36035076145865, 434.86228263721273 237.65920006731812, 435.2040669738712 230.17644731306916 C435.54585131052966 222.6936945588202, 438.3900830534994 213.53225536123097, 442.23586935849073 206.79785901091435 C446.0816556634821 200.06346266059774, 455.9007886537387 192.24094655527196, 458.2787848038194 189.77006921116956 C460.6567809539001 187.29919186706715, 456.4595094861944 191.4747161209413, 456.50384625897505 191.97259494629992" fill="none" stroke="#c1542f" stroke-width="1.8"></path></g><text x="480" y="238" text-anchor="middle" font-size="26" font-weight="800" fill="#ffffff" font-family="&#x27;Heebo&#x27;, sans-serif">1</text><g><text x="480" y="126.55" font-family="&#x27;Heebo&#x27;, &#x27;Arial Hebrew&#x27;, &#x27;Noto Sans Hebrew&#x27;, sans-serif" font-size="16.5" font-weight="700" fill="#3d2c1e" direction="rtl" text-anchor="middle">‏תכנון</text></g><g><text x="480" y="152" font-family="&#x27;Heebo&#x27;, &#x27;Arial Hebrew&#x27;, &#x27;Noto Sans Hebrew&#x27;, sans-serif" font-size="13" font-weight="400" fill="#7a6552" direction="rtl" text-anchor="middle">‏הגדרת יעדים ומדדים</text></g></g><g><g><path d="M288.29145092303986 360.024688536079 C294.5895723857979 357.0332314817888, 304.8540502047893 356.994824450108, 312.2211071274217 358.0797239957567 C319.5881640500541 359.1646235414054, 326.5278849652978 361.93440815109807, 332.49379245883415 366.53408580997115 C338.4596999523705 371.1337634688442, 345.3183830066886 378.3242321581425, 348.01655208863986 385.6777899489953 C350.71472117059113 393.0313477398482, 350.2414817011893 403.01391709190443, 348.6828069505419 410.65543255508834 C347.12413219989446 418.29694801827225, 343.0277124498545 425.8283941582446, 338.66450358475555 431.5268827280986 C334.3012947196566 437.2253712979526, 329.1552014997818 442.04973335644155, 322.5035537599481 444.84636397421235 C315.85190602011437 447.64299459198315, 306.1454298969252 449.5091654120459, 298.7546171457533 448.3066664347235 C291.3638043945814 447.10416745740116, 284.2334177336026 442.44150379872536, 278.1586772529167 437.63137011027817 C272.08393677223074 432.821236421831, 265.0606802471612 426.5047610895553, 262.3061742616378 419.44586430404047 C259.5516682761144 412.38696751852564, 260.4915779169361 402.573576103977, 261.63164133977637 395.2779893971891 C262.77170476261665 387.9824026904012, 262.4808725874632 381.98984093876743, 269.14655479867946 375.67234406331306 C275.81223700989574 369.3548471878587, 294.0679530370032 360.0374548452663, 301.62573460707404 357.3730081444628 C309.1835161771449 354.7085614436593, 314.5358286258558 359.08985864698093, 314.4932442191046 359.68566385849203 M317.153453106092 358.53911926026075 C324.1330047467059 359.5311136884732, 330.83846320825603 365.6871750056083, 336.0311001153877 370.88704030488316 C341.22373702251934 376.086905604158, 346.52780772377093 382.26520877190876, 348.30927454888194 389.7383110559098 C350.09074137399296 397.2114133399108, 348.4519819560179 408.3363326490315, 346.7199010660538 415.7256540088891 C344.9878201760897 423.1149753687467, 343.15297553334705 429.09985881457766, 337.91678920909726 434.07423921505546 C332.6806028848475 439.04861961553326, 322.61759124610586 443.43272520109326, 315.3027831205551 445.57193641175576 C307.9879749950043 447.71114762241825, 300.9147441066432 448.5720857689315, 294.02794045579276 446.90950647903054 C287.14113680494233 445.24692718912956, 279.42555171345396 441.0771108527397, 273.9819612154524 435.5964606723499 C268.5383707174508 430.11581049196013, 263.5148605931149 421.1771156239415, 261.3663974677834 414.0256053966918 C259.2179343424518 406.87409516944206, 258.98893013385145 399.7311574358105, 261.0911824634632 392.6873993088516 C263.19343479307497 385.6436411818927, 268.36090986746973 377.1623240130888, 273.9799114454541 371.7630566349384 C279.59891302343846 366.363789256788, 287.9096830387785 362.6242804505744, 294.8051919313695 360.2917950399493 C301.7007008239605 357.9593096293242, 311.77444920009754 357.99222724945355, 315.3529648010002 357.7681441711876 C318.9314804019029 357.54406109292165, 316.46616566541013 357.9143893189496, 316.2762855367857 358.9472965703538" fill="#d98841" stroke="none"></path><path d="M304.4874097476996 356.209562344435 C311.4263489018496 355.18585464647464, 320.3258289810534 357.9900434190139, 326.62474848939763 361.9341909943862 C332.92366799774186 365.8783385697585, 338.479244564709 373.29240656906194, 342.280926797765 379.8744477966688 C346.082609030821 386.45648902427564, 349.2229351821743 393.9534595024881, 349.43484188773346 401.4264383600272 C349.6467485932926 408.8994172175663, 346.9300714737458 418.1334474748734, 343.55236703112007 424.7123209419033 C340.17466258849436 431.29119440893317, 335.5253943615096 436.92787287155227, 329.1686152319792 440.8996791622067 C322.81183610244875 444.8714854528612, 312.87777755311765 448.3089146652549, 305.41169225393764 448.54315868583006 C297.94560695475764 448.7774027064052, 290.770034612813 446.0414961073195, 284.3721034368993 442.30514328565766 C277.9741722609856 438.5687904639958, 270.89856440873257 432.6578837599473, 267.0241051984554 426.12504175585883 C263.14964598817824 419.59219975177035, 261.30820309214766 410.55551362586044, 261.12534817523647 403.10809126112684 C260.94249325832527 395.66066889639325, 262.31180704099114 388.1176707229155, 265.9269756969881 381.4405075674573 C269.5421443529851 374.7633444119991, 275.39348302738927 367.0054143288221, 282.8163601112184 363.04511232837797 C290.2392371950475 359.08481032793384, 304.9051953483048 358.3586338055501, 310.4642381999628 357.6786955647924 C316.02328105162076 356.9987573240347, 316.3861264479974 358.3319803422824, 316.17061722116614 358.9654828838319 M285.8542531242192 359.1919601137186 C292.16419329701665 355.78784730786504, 301.9472314805632 355.88641079588996, 309.27041852592225 356.84689008695506 C316.59360557128133 357.80736937802016, 323.36612298716756 360.3484926886065, 329.7933753963738 364.95483586010914 C336.22062780558 369.5611790316118, 344.29149193888867 377.33663114042616, 347.83393298115965 384.48494911597095 C351.3763740234306 391.63326709151573, 351.88498566452427 400.5137263726728, 351.0480216499998 407.8447437133778 C350.2110576354753 415.1757610540828, 347.36776038729903 422.0152918299141, 342.8121488940128 428.471053160201 C338.2565374007266 434.9268144904879, 330.58453335146464 443.05434354982856, 323.7143526902824 446.5793116950994 C316.84417202910015 450.1042798403703, 308.8985986600722 450.98030781411364, 301.5910649269194 449.62086203182616 C294.2835311937666 448.2614162495387, 286.4079004961535 442.83907070279594, 279.8691502913655 438.4226370013746 C273.33040008657747 434.00620329995326, 265.28097444461326 429.98816687917673, 262.3585636981911 423.12225982329824 C259.436152951769 416.25635276741974, 261.0402185868098 404.72068977427625, 262.3346858128325 397.22719466610374 C263.62915303885524 389.73369955793123, 265.73406898467476 384.49032272087015, 270.12536705432746 378.1612891742632 C274.51666512398015 371.8322556276562, 285.57868556503684 361.786243622599, 288.6824742307485 359.2529933864618 C291.78626289646013 356.71974315032463, 288.4465072467548 361.846244356125, 288.7480990485975 362.96178775744016" fill="none" stroke="#d98841" stroke-width="1.8"></path></g><text x="305" y="413" text-anchor="middle" font-size="26" font-weight="800" fill="#ffffff" font-family="&#x27;Heebo&#x27;, sans-serif">2</text><g><text x="216.3125" y="402.99999999999994" font-family="&#x27;Heebo&#x27;, &#x27;Arial Hebrew&#x27;, &#x27;Noto Sans Hebrew&#x27;, sans-serif" font-size="16.5" font-weight="700" fill="#3d2c1e" direction="rtl" text-anchor="middle">‏ביצוע</text></g><g><text x="178.16" y="428.44999999999993" font-family="&#x27;Heebo&#x27;, &#x27;Arial Hebrew&#x27;, &#x27;Noto Sans Hebrew&#x27;, sans-serif" font-size="13" font-weight="400" fill="#7a6552" direction="rtl" text-anchor="middle">‏יישום בהיקף מצומצם</text></g></g><g><g><path d="M472.1641967878298 532.8817012545752 C479.09830032482256 530.6349792798941, 487.015688299531 531.2358746165603, 493.86967078174814 533.7653456685539 C500.7236532639653 536.2948167205475, 508.0830234099911 542.3336366401516, 513.2880916811324 548.0585275665364 C518.4931599522738 553.7834184929213, 523.5739968528808 560.8917992823266, 525.1000804085961 568.1146912268631 C526.6261639643114 575.3375831713996, 525.172273489831 584.1412326514662, 522.4445930154241 591.3958792337556 C519.7169125410171 598.650525816045, 514.0700446919494 606.4044043410815, 508.73399756215406 611.6425707205992 C503.3979504323587 616.8807371001169, 497.7516572256754 621.1962659681006, 490.42831023665207 622.8248775108618 C483.10496324762875 624.453489053623, 471.91686518637397 623.6534435100039, 464.79391562801425 621.4142399771664 C457.6709660696545 619.175036444329, 452.5922639716926 615.19689795125, 447.6906128864936 609.3896563138373 C442.78896180129465 603.5824146764247, 436.99459802789363 594.2850239225534, 435.38400911682027 586.5707901526906 C433.7734202057469 578.8565563828279, 435.4606492706903 570.0733404756893, 438.02707942005327 563.1042536946605 C440.59350956941626 556.1351669136318, 444.0066701985652 549.8534273036084, 450.78259001299836 544.7562694665182 C457.5585098274315 539.659111629428, 473.3104310462922 534.3580739428622, 478.6825983066524 532.5213066721194 C484.05476556701257 530.6845394013766, 483.1068701252202 533.2129879323853, 483.0155935751594 533.7356658420615 M481.76059462463405 532.3444334073462 C488.4838200823556 531.6211695912796, 495.5902900938516 533.9893083361858, 502.12119424705674 538.1948632339336 C508.6520984002619 542.4004181316814, 517.0184778419709 550.5684492802242, 520.946019543865 557.5777627938329 C524.873561245759 564.5870763074416, 526.4146349542829 572.8477213619587, 525.6864444584206 580.250744315586 C524.9582539625584 587.6537672692132, 520.8852467340623 595.4033803776479, 516.5768765686918 601.9959005155964 C512.2685064033212 608.588420653545, 506.28045360794704 615.9837643622782, 499.8362234661972 619.8058651432773 C493.3919933244474 623.6279659242764, 484.901133337692 625.1410846868176, 477.91149571819295 624.9285052015907 C470.9218580986939 624.7159257163638, 464.1057322887131 622.8071204513362, 457.8983977492031 618.530388231916 C451.69106320969314 614.2536560124959, 444.0955246333577 606.1450373135514, 440.667488481133 599.2681118850695 C437.23945232890827 592.3911864565877, 437.09673318052114 585.2035137653041, 437.33018083585483 577.2688356610249 C437.5636284911885 569.3341575567457, 438.5855813671627 558.5398938638516, 442.0681744131352 551.6600432593942 C445.55076745910765 544.7801926549369, 451.7104578193793 539.4017441152234, 458.2257391116895 535.9897320342805 C464.7410204039997 532.5777199533375, 477.0552795237171 531.760095399092, 481.1598621669963 531.1879707737364 C485.26444481027545 530.6158461483808, 482.88106208039284 531.6907193136562, 482.8532349713646 532.5569842821466" fill="#8a9a5b" stroke="none"></path><path d="M461.9378312670311 534.2566380625012 C468.5378226274423 531.0579144046122, 479.68772860468374 531.871566272257, 487.17160217708715 532.8956513260222 C494.65547574949056 533.9197363797873, 501.3135463273998 535.7935194140771, 506.8410727014516 540.4011483850923 C512.3685990755034 545.0087773561074, 517.253353137306 553.3890059567793, 520.3367604213978 560.5414251521132 C523.4201677054896 567.6938443474471, 526.0804863104395 575.6130808289575, 525.3415164060025 583.3156635570953 C524.6025465015655 591.018246285233, 520.4747234398719 600.4307915333062, 515.9029409947756 606.7569215209397 C511.3311585496793 613.0830515085732, 504.84069928249426 618.5213720540457, 497.9108217354247 621.2724434828964 C490.9809441883551 624.023514911747, 481.72273345278245 624.2090763505764, 474.3236757123581 623.2633500940436 C466.9246179719338 622.3176238375108, 459.38650046609564 620.3652494127703, 453.5164752928788 615.5980859436993 C447.64645011966195 610.8309224746283, 442.1433542741768 602.0077870690768, 439.10352467305694 594.6603692796178 C436.0636950719371 587.3129514901589, 434.18233146166574 579.1302631343923, 435.2774976861597 571.5135792069456 C436.3726639106536 563.8968952794988, 440.3409741826935 555.1159616771938, 445.6745220200206 548.9602657149373 C451.0080698573477 542.8045697526809, 463.19654590620706 536.9458419893446, 467.27878471012235 534.579403433407 C471.36102351403764 532.2129648774695, 469.9209258072621 533.9757365684252, 470.16795484351223 534.7616343793125 M467.3018277391362 533.6035841381197 C473.39357335252566 530.815737068967, 482.09309470889116 528.9301782229278, 489.1964862629568 531.0505295048306 C496.29987781702243 533.1708807867334, 503.96275147729716 540.771781060548, 509.9221770635299 546.3256918295367 C515.8816026497626 551.8796025985254, 522.8344528924147 557.3791244833692, 524.9530397803533 564.3739941187628 C527.0716266682919 571.3688637541563, 524.8792874919604 580.8367493599067, 522.6336983911615 588.2949096418978 C520.3881092903625 595.7530699238889, 516.2266080769839 603.1465534885083, 511.47950517555967 609.1229558107099 C506.73240227413544 615.0993581329114, 501.4150420258252 621.7486330980021, 494.1510809826162 624.1533235751073 C486.88711993940717 626.5580140522125, 475.67565050206184 625.5698996920777, 467.8957389163056 623.5510986733412 C460.1158273305494 621.5322976546048, 452.89828374768433 617.6595640265556, 447.47161146807883 612.0405174626889 C442.04493918847334 606.4214708988221, 437.22424668283804 597.1080725460351, 435.3357052386727 589.8368192901411 C433.44716379450733 582.565566034247, 433.9085188850405 575.7648748605169, 436.1403628030868 568.4129979273245 C438.3722067211331 561.061120994132, 443.1761359809767 551.511868337668, 448.7267687469506 545.7255576909864 C454.2774015129245 539.9392470443048, 466.37475624598056 535.5335582083404, 469.44415939893 533.6951340472345 C472.5135625518795 531.8567098861287, 467.2903074294301 533.6744583551708, 467.14318766464737 534.6950127243513" fill="none" stroke="#8a9a5b" stroke-width="1.8"></path></g><text x="479.99999999999994" y="588" text-anchor="middle" font-size="26" font-weight="800" fill="#ffffff" font-family="&#x27;Heebo&#x27;, sans-serif">3</text><g><text x="479.99999999999994" y="644" font-family="&#x27;Heebo&#x27;, &#x27;Arial Hebrew&#x27;, &#x27;Noto Sans Hebrew&#x27;, sans-serif" font-size="16.5" font-weight="700" fill="#3d2c1e" direction="rtl" text-anchor="middle">‏בדיקה</text></g><g><text x="479.99999999999994" y="669.45" font-family="&#x27;Heebo&#x27;, &#x27;Arial Hebrew&#x27;, &#x27;Noto Sans Hebrew&#x27;, sans-serif" font-size="13" font-weight="400" fill="#7a6552" direction="rtl" text-anchor="middle">‏מדידת תוצאות מול יעדים</text></g></g><g><g><path d="M653.483794435579 356.9343381416812 C660.4026465315513 355.9859644876536, 668.5224166091052 357.23520984560344, 675.1379200968594 360.70647948470736 C681.7534235846135 364.1777491238113, 688.8672320082308 371.0477467263137, 693.1768153621038 377.76195597630476 C697.4863987159767 384.47616522629585, 700.6825641544449 393.1654462478687, 700.9954202200976 400.99173498465393 C701.3082762857503 408.81802372143915, 698.8872522309841 417.59449605284726, 695.0539517560201 424.71968839701606 C691.220651281056 431.84488074118485, 684.1535735079169 439.5948759693524, 677.9956173703131 443.7428890496667 C671.8376612327093 447.890902129981, 665.4365630838673 449.68719815780383, 658.106214930397 449.6077668789016 C650.7758667769266 449.52833559999937, 640.6765435943239 446.9727698787046, 634.0135284494907 443.2663013762533 C627.3505133046574 439.559832873802, 622.1887067229032 433.5707438399998, 618.1281240613978 427.3689558641939 C614.0675413998923 421.16716788838795, 610.0755623532547 413.7592069141936, 609.6500324804578 406.0555735214178 C609.2245026076608 398.35194012864196, 612.1122003386 388.04715700558245, 615.5749448246165 381.14715550753897 C619.037689310633 374.2471540094955, 623.1201502377959 369.00540467946263, 630.426499396557 364.65556453315673 C637.7328485553181 360.30572438685084, 653.8098762547515 356.286812754916, 659.413039777183 355.0481146297035 C665.0162032996145 353.80941650449097, 664.2933421873655 356.3101336645392, 664.0454805311458 357.22337578188177 M646.2697660456121 358.3274434705312 C653.101450543998 355.8651878573496, 664.3992953547587 354.9349377860965, 671.2723363120931 357.21441808724313 C678.1453772694275 359.49389838838977, 682.9959390242799 365.80215854183785, 687.5080117896186 372.0043252774109 C692.0200845549574 378.2064920129839, 696.6527446562919 386.6736432726344, 698.3447729041256 394.42741850068137 C700.0368011519594 402.1811937287283, 700.1509099386736 411.3016054243165, 697.6601812766211 418.5269766456926 C695.1694526145685 425.75234786706875, 689.361594298221 432.40584060187825, 683.4004009318104 437.7796458289381 C677.4392075653998 443.15345105599795, 669.334123508528 449.47431833500406, 661.8930210781574 450.76980800805154 C654.4519186477868 452.065297681099, 645.4287344886611 448.39363393059966, 638.7537863495869 445.5525838672231 C632.0788382105127 442.7115338038466, 626.3893976094919 439.2824902498629, 621.8433322437121 433.7235076277924 C617.2972668779323 428.1645250057219, 613.1290795234469 419.9613368970495, 611.4773941549084 412.1986881347999 C609.82570878637 404.43603937255034, 609.37686086296 394.52276023101643, 611.9332200324817 387.14761505429516 C614.4895792020034 379.7724698775739, 620.9929542715477 373.00817070145723, 626.8155491720388 367.9478170744722 C632.6381440725299 362.88746344748716, 643.115685345713 358.3933271395107, 646.8687894354284 356.78549329238484 C650.6218935251438 355.177659445259, 649.1983149648036 357.63748623807544, 649.3341737103309 358.300813991717" fill="#5b7a8a" stroke="none"></path><path d="M681.827586646202 364.9828344783524 C687.6253104607525 369.043501523951, 692.4575542086604 377.18367819705, 695.3335096671941 384.5217305165282 C698.2094651257278 391.85978283600633, 699.7104993110878 401.10722406568163, 699.0833193974041 409.0111483952214 C698.4561394837204 416.9150727247612, 696.0220779657743 425.55993707693574, 691.5704301850922 431.9452764937668 C687.11878240441 438.3306159105979, 679.3428437132959 444.5409960501075, 672.3734327133113 447.32318489620803 C665.4040217133268 450.1053737423086, 657.1544334112245 449.638505789375, 649.7539641851847 448.63840957037 C642.3534949591449 447.638313351365, 633.9529123570367 445.969519503313, 627.9706173570725 441.3226075821779 C621.9883223571082 436.6756956610428, 616.9341729790724 428.1460675222836, 613.8601941853998 420.7569380435596 C610.7862153917272 413.3678085648356, 608.5784519691285 404.793356592337, 609.5267445950366 396.987830709834 C610.4750372209446 389.182304827331, 615.0401985828696 380.25800917976164, 619.5499499408477 373.9237827485415 C624.0597012988258 367.58955631732135, 629.6075799828444 361.9612403454703, 636.5852527429049 358.98247212251323 C643.5629255029654 356.00370389955617, 652.400180341541 353.5151370795177, 661.4159865012105 356.0511734107993 C670.4317926608799 358.587209742081, 684.949490646341 368.9057993067281, 690.6800897009213 374.19869011020324 C696.4106887555015 379.4915809136784, 696.1997928373712 387.1288681315613, 695.7995808286921 387.80851823165 M648.9913098838672 354.6496605813037 C656.1344090458903 353.25425431744594, 666.3677390877448 357.1101966253238, 673.1090725091408 360.3793441852389 C679.8504059305368 363.648491745154, 684.7531245861875 368.5497573615358, 689.4393104122431 374.2645459407943 C694.1254962382988 379.97933452005276, 699.8717726535039 387.26572976867806, 701.2261874654744 394.66807566078984 C702.5806022774449 402.0704215529016, 700.4844332226647 411.2475139472765, 697.5657992840664 418.6786212934651 C694.6471653454681 426.10972863965367, 689.9510334237062 433.88567611411, 683.7143838338845 439.2547197379212 C677.4777342440628 444.6237633617324, 667.662649984693 449.6759763172653, 660.145901745136 450.89288303633236 C652.6291535055791 452.10978975539945, 645.3239211935261 449.92324059468353, 638.6138943965426 446.55616005232366 C631.9038675995591 443.1890795099638, 624.7949223804545 436.725369421269, 619.8857409632353 430.6903997821732 C614.9765595460161 424.65543014307735, 609.9731601135 417.8838662705279, 609.1588058932272 410.3463422177487 C608.3444516729544 402.8088181649695, 611.8659752800036 392.52131834662157, 614.9996156415983 385.465255465498 C618.1332560031931 378.4091925843744, 622.0526253202414 373.1255529874586, 627.9606480627959 368.0099649310073 C633.8686708053505 362.894376874556, 646.7786358307392 356.56572110501315, 650.4477520969257 354.7717271267902 C654.1168683631122 352.97773314856727, 649.8752087834868 356.33434326493693, 649.9753456599151 357.2460010616695" fill="none" stroke="#5b7a8a" stroke-width="1.8"></path></g><text x="655" y="413.00000000000006" text-anchor="middle" font-size="26" font-weight="800" fill="#ffffff" font-family="&#x27;Heebo&#x27;, sans-serif">4</text><g><text x="743.6875" y="403.00000000000006" font-family="&#x27;Heebo&#x27;, &#x27;Arial Hebrew&#x27;, &#x27;Noto Sans Hebrew&#x27;, sans-serif" font-size="16.5" font-weight="700" fill="#3d2c1e" direction="rtl" text-anchor="middle">‏פעולה</text></g><g><text x="785.22" y="428.45000000000005" font-family="&#x27;Heebo&#x27;, &#x27;Arial Hebrew&#x27;, &#x27;Noto Sans Hebrew&#x27;, sans-serif" font-size="13" font-weight="400" fill="#7a6552" direction="rtl" text-anchor="middle">‏הטמעה רחבה או תיקון</text></g></g></svg>