<svg width="960" height="443.79999999999995" viewBox="0 0 960 443.79999999999995" xmlns="http://www.w3.org/2000/svg" style="background:#fdf8f2"><rect width="960" height="443.79999999999995" fill="#fdf8f2"></rect><g><text x="480" y="46" font-family="&#x27;Heebo&#x27;, &#x27;Arial Hebrew&#x27;, &#x27;Noto Sans Hebrew&#x27;, sans-serif" font-size="28" font-weight="700" fill="#3d2c1e" direction="rtl" text-anchor="middle">‏תהליך הגשת מכרז מוצלח</text></g><g><g><path d="M648.9343462941547 140.446631809324 C647.0463942018647 141.89737907072902, 638.6262803969283 141.59335468432306, 617.4671382186312 140.44561822041868 M650.6845426024247 141.77262831516563 C639.0419109196712 141.2095273783952, 629.6933813334753 141.22427741797267, 619.2581893266488 141.07365333624182" fill="none" stroke="#3d2c1e" stroke-width="1.8"></path></g><polyline points="629.2382514592127,137.16537912477645 619.3333333333333,141.95 629.2382514592127,146.73462087522353" fill="none" stroke="#3d2c1e" stroke-width="2.5" stroke-linecap="round" stroke-linejoin="round"></polyline></g><g><g><path d="M340.26767962748795 140.446631809324 C338.379727535198 141.89737907072902, 329.95961373026165 141.59335468432306, 308.80047155196456 140.44561822041868 M342.01787593575807 141.77262831516563 C330.3752442530045 141.2095273783952, 321.0267146668086 141.22427741797267, 310.59152265998216 141.07365333624182" fill="none" stroke="#3d2c1e" stroke-width="1.8"></path></g><polyline points="320.571584792546,137.16537912477645 310.6666666666666,141.95 320.571584792546,146.73462087522353" fill="none" stroke="#3d2c1e" stroke-width="2.5" stroke-linecap="round" stroke-linejoin="round"></polyline></g><g><g><path d="M168.9343462941546 218.396631809324 C173.54339017098883 228.4719602840021, 171.5242833775852 236.56925760023293, 169.46713821863125 260.39561822041867 M170.68454260242473 219.72262831516562 C170.4273435292814 234.2125316256657, 172.261637717304 248.90473786890504, 171.25818932664882 261.0236533362418" fill="none" stroke="#3d2c1e" stroke-width="1.8"></path></g><polyline points="166.5487124581097,251.99508187412053 171.33333333333323,261.9 176.11795420855677,251.99508187412053" fill="none" stroke="#3d2c1e" stroke-width="2.5" stroke-linecap="round" stroke-linejoin="round"></polyline></g><g><g><path d="M306.26767962748795 340.346631809324 C317.1817415582636 342.24389809200164, 321.5636417763928 341.93987370559574, 338.80047155196456 340.34561822041866 M308.01787593575807 341.6726283151656 C318.7408918014416 341.8606234656125, 331.75800976368276 341.87537350519, 340.59152265998216 340.9736533362418" fill="none" stroke="#3d2c1e" stroke-width="1.8"></path></g><polyline points="330.76174854078715,346.6346208752235 340.6666666666666,341.84999999999997 330.76174854078715,337.0653791247764" fill="none" stroke="#3d2c1e" stroke-width="2.5" stroke-linecap="round" stroke-linejoin="round"></polyline></g><g><g><path d="M654.7728368570406 69.07459287941455 L921.6728822201491 72.89764881432056 L920.4059160679578 211.07451639473436 L658.8142235567171 216.351972964406" fill="#f5ece1" stroke="none"></path><path d="M658.4244873279633 71.22686519103078 C709.4608539945864 70.80298047112908, 761.6894172623068 67.12024396737614, 918.9898858024605 70.49937793551416 M656.5076898017521 70.3367900846542 C716.0344470285837 69.59234447193484, 773.7268236026108 68.86724584511288, 919.2612799218342 70.95820957912973 M922.4587267905474 67.20090651214123 C920.6951793498739 103.26699489400721, 921.8016367740378 129.9718985834904, 922.2248764067888 212.5090321034193 M920.4762843355536 68.7211615100503 C921.1120327672139 107.24596102803014, 919.5496831139699 147.2879984000139, 920.6510029539465 214.46358995586633 M921.3400416013867 213.6283261347906 C864.6615936652514 216.96170694277723, 804.5571242388853 216.26989029050623, 659.6708375847843 213.3863816312198 M918.7991746666988 213.71705302178975 C821.1484466484287 214.61846987803153, 723.533667361143 214.2729408100975, 658.5284603837564 213.95326089417912 M656.1803667416175 213.44965128600595 C657.6796286648844 170.18272983803413, 654.9077352589701 131.64427213517948, 658.2802138676245 68.07027077376843 M657.6820643966396 215.4971568599343 C654.6756346496527 160.50773229152895, 655.4853217395728 107.76728385837748, 658.0385182445248 71.58084812313318" fill="none" stroke="#c1542f" stroke-width="1.8"></path></g><rect x="657.3333333333333" y="70" width="262.6666666666667" height="7" rx="3" fill="#c1542f"></rect><g><path d="M883.7787172651396 87.95207505868501 C886.8224539980815 85.47907541827627, 891.2616061248028 85.50498608539932, 894.8802186760512 86.23394943842132 C898.4988312272995 86.96291279144332, 902.9183636133165 89.0109878647711, 905.4903925726295 92.325855176817 C908.0624215319425 95.6407224888629, 910.2642798837251 101.72498738197231, 910.3123924319293 106.12315331069676 C910.3605049801336 110.52131923942122, 908.206450364332 115.17783129814157, 905.7790678618549 118.71485074916373 C903.3516853593777 122.25187020018589, 899.3626820055933 126.26613151476269, 895.7480974170664 127.34527001682974 C892.1335128285396 128.4244085188968, 887.6799691594192 127.71611645779468, 884.0915603306937 125.18968176156606 C880.5031515019682 122.66324706533744, 875.9247349318316 116.68519741824943, 874.2176444447135 112.18666183945805 C872.5105539575954 107.68812626066668, 871.3494935696602 102.69099066777133, 873.8490174079856 98.1984682888178 C876.3485412463109 93.70594590986428, 885.9596411864126 87.37041607695288, 889.2147874746657 85.23152756573691 C892.4699337629189 83.09263905452094, 893.3049656448514 84.95401965133814, 893.3798951375048 85.36513722152199 M900.2989646271914 86.41597779640895 C903.1707281734596 88.35794587040137, 906.9524975374421 93.1755545289498, 908.5625605567484 97.7537061544415 C910.1726235760547 102.3318577799332, 911.2219256782307 109.74658449585901, 909.9593427430292 113.88488754935915 C908.6967598078277 118.02319060285929, 904.2826636888501 120.5032375156445, 900.9870629455394 122.58352447544235 C897.6914622022286 124.66381143524019, 894.2434632911163 127.07668879648797, 890.185738283165 126.3666093081462 C886.1280132752138 125.65652981980442, 879.3804168643551 121.63262921147353, 876.6407128978315 118.32304754539169 C873.9010089313078 115.01346587930985, 873.4002735335524 110.51749418726554, 873.7475144840233 106.50911931165517 C874.0947554344942 102.5007444360448, 876.0497478474967 97.95125852902663, 878.7241586006567 94.27279829172946 C881.3985693538166 90.59433805443228, 886.2356743090331 85.53223078791328, 889.7939790029831 84.43835788787214 C893.352283696933 83.34448498783101, 898.1345218527707 87.0590363027615, 900.0739867643565 87.70956089148265 C902.0134516759423 88.36008548020381, 901.4406905089104 88.0363660584652, 901.430768472498 88.3415054201991" fill="#c1542f" stroke="none"></path><path d="M899.2021303387711 87.03783128746007 C902.5464840169269 88.67907120718183, 906.0174427801762 94.62124249053223, 907.6325242565076 98.80580194695311 C909.247605732839 102.990361403374, 909.832845045751 108.11153611795862, 908.8926191967597 112.14518802598535 C907.9523933477684 116.17883993401207, 905.042206166232 120.6706492066205, 901.9911691625596 123.00771339511346 C898.9401321588872 125.34477758360642, 894.6368531436475 126.43558861234715, 890.5863971747254 126.16757315694313 C886.5359412058034 125.89955770153912, 880.5718725902399 124.64104454711618, 877.6884333490275 121.39962066268939 C874.8049941078151 118.15819677826259, 873.4074408052412 111.16486014443109, 873.2857617274514 106.71902985038237 C873.1640826496615 102.27319955633365, 874.6638438107922 98.26629854037212, 876.9583588822885 94.7246388983971 C879.2528739537848 91.18297925642209, 882.8041703793124 86.60222989956519, 887.0528521564293 85.46907199853226 C891.3015339335461 84.33591409749933, 899.7183064228609 87.27822894733207, 902.45044954499 87.92569149219955 C905.182592667119 88.57315403706703, 903.4859358455531 88.8106436324732, 903.4457108892036 89.35384726773715 M901.5377213667493 87.71393563045399 C904.9556973600651 89.39850811108516, 910.942214862052 94.57015050327989, 912.0757321690963 99.06625592036421 C913.2092494761407 103.56236133744854, 910.3305061737315 110.55542283073184, 908.3388252090156 114.6905681329599 C906.3471442442997 118.82571343518795, 904.0216040948071 122.020895430851, 900.125646380801 123.87712773373252 C896.2296886667948 125.73336003661404, 888.8499934105606 126.8289384551149, 884.9630789249787 125.827961950249 C881.0761644393968 124.82698544538312, 878.4379177261914 121.71813245953483, 876.8041594673097 117.87126870453716 C875.170401208428 114.02440494953949, 874.4661831052873 107.44707362131562, 875.1605293716887 102.74677942026295 C875.85487563809 98.04648521921028, 878.6884569063568 92.48976507845792, 880.9702370657178 89.66950349822116 C883.2520172250788 86.8492419179844, 885.3047890175989 86.08718639469167, 888.8512103278549 85.82520993884236 C892.397631638111 85.56323348299306, 899.5869561171352 87.37739643415748, 902.2487649272543 88.09764476312534 C904.9105737373735 88.81789309209321, 904.7872636364812 89.89695171448406, 904.8220631885702 90.14669991264958" fill="none" stroke="#c1542f" stroke-width="1.8"></path></g><text x="892" y="113" text-anchor="middle" font-size="18" font-weight="700" fill="#ffffff" font-family="&#x27;Heebo&#x27;, sans-serif">1</text><g><text x="784.525" y="112" font-family="&#x27;Heebo&#x27;, &#x27;Arial Hebrew&#x27;, &#x27;Noto Sans Hebrew&#x27;, sans-serif" font-size="17" font-weight="700" fill="#3d2c1e" direction="rtl" text-anchor="middle">‏קריאת מסמכי המכרז</text></g><g><text x="805.72" y="148.1" font-family="&#x27;Heebo&#x27;, &#x27;Arial Hebrew&#x27;, &#x27;Noto Sans Hebrew&#x27;, sans-serif" font-size="13.5" font-weight="400" fill="#7a6552" direction="rtl" text-anchor="middle">‏קריאה מעמיקה וזיהוי תנאי הסף</text><text x="875.92" y="166.325" font-family="&#x27;Heebo&#x27;, &#x27;Arial Hebrew&#x27;, &#x27;Noto Sans Hebrew&#x27;, sans-serif" font-size="13.5" font-weight="400" fill="#7a6552" direction="rtl" text-anchor="middle">‏הקריטיים</text></g></g><g><g><path d="M346.74567371408136 71.34918575882912 L611.4790977736313 72.59529762864113 L608.945165469249 211.44903278946873 L348.4284471134344 215.603945928812" fill="#f5ece1" stroke="none"></path><path d="M348.3033068159268 69.90806254206157 C402.9340424958395 72.40360353212483, 454.85783569794694 70.12946620461895, 611.8587727782544 68.45308803102832 M348.2882135235042 69.4007462493084 C412.262726803834 71.25516545373632, 475.1141466185547 69.80496820009242, 611.1287270970017 70.64358523825948 M613.050786914428 67.60181302428245 C611.8260920330812 104.55398978801443, 614.0390068814089 135.5837971669808, 612.5830861469109 214.31806420683859 M610.6859020044405 69.0423230201006 C609.654998867761 117.31192205606028, 609.730299561273 165.41599680002778, 611.0353392412264 213.42717991173265 M611.4677486961066 215.90232010958124 C550.6441861571694 219.22577129568782, 488.05991631777084 217.84213799114582, 350.79600732956857 215.41843110243957 M610.2045165867311 214.80693996357954 C519.9697272168573 210.7207954061964, 427.2611674689527 212.57540511032838, 349.7840868475128 212.73368786835826 M349.56073348323497 216.19930257201193 C348.46165732976885 158.44545967606825, 349.3178705179402 103.74854427035898, 347.3604277352491 69.34054154753684 M347.7641287932792 215.49431371986864 C347.2536692993054 166.2754645830579, 348.8730434791455 118.35456771675497, 348.4770364890495 71.56169624626637" fill="none" stroke="#d98841" stroke-width="1.8"></path></g><rect x="348.6666666666666" y="70" width="262.6666666666667" height="7" rx="3" fill="#d98841"></rect><g><path d="M585.1184231105251 84.9269873380468 C589.2205303586386 84.77407828418349, 595.3712391230315 87.08372580058497, 597.9899054111215 90.52618806677029 C600.6085716992116 93.9686503329556, 600.670334610905 101.17815598693699, 600.8304208390655 105.58176093515871 C600.990507067226 109.98536588338044, 601.3050389195242 113.52268501244517, 598.9504227800848 116.94781775610063 C596.5958066406453 120.3729504997561, 590.896728930903 124.87246577841925, 586.7027240024288 126.13255739709149 C582.5087190739546 127.39264901576372, 577.1346876032208 126.61990194375798, 573.7863932092393 124.50836746813403 C570.438098815258 122.39683299251007, 568.1409984870472 117.30083017728121, 566.6129576385407 113.46335054334779 C565.0849167900342 109.62587090941436, 563.5844629380799 105.47355729620895, 564.6181481181999 101.4834896645335 C565.6518332983198 97.49342203285804, 567.6661999535863 91.65654606321417, 572.8150687192606 89.52294475329505 C577.9639374849348 87.38934344337594, 590.9421137728962 87.29236282621773, 595.5113607122455 88.68188180501883 C600.0806076515948 90.07140078381994, 600.8480827302458 97.68403147509191, 600.2305503553566 97.8600586261017 M594.6955434798024 85.9245866643429 C598.6060407744083 87.64895478521889, 601.289206037288 93.19109650987778, 602.209707808423 97.75598287285332 C603.130209579558 102.32086923582887, 601.7581370087005 108.76429494354825, 600.2185541066127 113.31390484219614 C598.6789712045249 117.86351474084402, 596.0675878846771 123.09525298286863, 592.9722103958964 125.05364226474067 C589.8768329071156 127.01203154661272, 585.611927680596 126.12721743774132, 581.6462891739286 125.06424053342843 C577.6806506672613 124.00126362911554, 571.7440166708984 122.06635030550171, 569.1783793558925 118.67578083886335 C566.6127420408866 115.28521137222498, 566.0630146215007 108.9005295341169, 566.252465283893 104.72082373359822 C566.4419159462853 100.54111793307955, 567.7318603919738 97.04036299956853, 570.3150833302467 93.59754603575126 C572.8983062685196 90.154729071934, 577.6927640146007 84.94137147095815, 581.7518029135306 84.06392195069465 C585.8108418124605 83.18647243043115, 593.0819386141449 87.82774682765933, 594.6693167238258 88.33284891417026 C596.2566948335067 88.83795100068119, 591.661377997981 86.53901830624159, 591.2760715716161 87.09453446976028" fill="#d98841" stroke="none"></path><path d="M585.0704363230265 85.04097373563238 C588.6356778895558 85.11203475750672, 593.3071342372514 88.42332202650803, 595.9848715174164 91.41971870675091 C598.6626087975815 94.4161153869938, 600.9190079836302 98.5204252564959, 601.136860004017 103.01935381708965 C601.3547120244037 107.5182823776834, 599.5521856237017 114.75045061941479, 597.2919836397373 118.41329007031342 C595.0317816557729 122.07612952121205, 591.4175427505206 123.96279928420665, 587.5756481002308 124.9963905224814 C583.7337534499409 126.02998176075616, 577.9581247001269 126.35114601143249, 574.2406157379979 124.61483749996191 C570.523106775869 122.87852898849133, 566.7964261651983 118.41154479145558, 565.270594327457 114.57853945365788 C563.7447624897158 110.74553411586018, 563.7893697335744 105.69649814803272, 565.0856247115503 101.6168054731757 C566.3818796895262 97.53711279831869, 569.5618970536738 92.89166321802158, 573.0481241953121 90.10038340451578 C576.5343513369504 87.30910359100999, 583.8438659808199 85.34570894918505, 586.0029875613802 84.8691265921409 C588.1621091419405 84.39254423509675, 585.8892012529375 86.63114462064588, 586.0028536786738 87.24088926225083 M592.2095538354719 86.15327125570029 C595.5457229204407 87.58750828021603, 599.3866264436646 91.1346151377332, 600.5930847357791 95.2647368488816 C601.7995430278937 99.39485856002999, 600.30490486232 106.13611134873496, 599.4483035881593 110.93400152259062 C598.5917023139987 115.73189169644628, 598.1701143279804 121.62761634114072, 595.4534770908156 124.05207789201556 C592.7368398536507 126.4765394428904, 587.2238410845999 126.18041680470856, 583.1484801651701 125.48077082783968 C579.0731192457403 124.7811248509708, 573.7832147602792 123.07526620611625, 571.0013115742364 119.85420203080233 C568.2194083881936 116.6331378554884, 567.0534570334805 110.11985282099732, 566.4570610489133 106.15438577595607 C565.860665064346 102.18891873091482, 565.4692309096532 99.30826479625358, 567.4229356668332 96.06139976055482 C569.3766404240131 92.81453472485606, 574.1687539407983 88.43240121435507, 578.1792895919931 86.67319556176346 C582.1898252431879 84.91398990917186, 589.4697677581605 85.40678160944393, 591.4861495740021 85.50616584500521 C593.5025313898436 85.6055500805665, 590.8398178418001 86.56074268111945, 590.2775804870427 87.2695009751312" fill="none" stroke="#d98841" stroke-width="1.8"></path></g><text x="583.3333333333333" y="113" text-anchor="middle" font-size="18" font-weight="700" fill="#ffffff" font-family="&#x27;Heebo&#x27;, sans-serif">2</text><g><text x="499.23333333333323" y="112" font-family="&#x27;Heebo&#x27;, &#x27;Arial Hebrew&#x27;, &#x27;Noto Sans Hebrew&#x27;, sans-serif" font-size="17" font-weight="700" fill="#3d2c1e" direction="rtl" text-anchor="middle">‏מיפוי דרישות</text></g><g><text x="493.54333333333324" y="148.1" font-family="&#x27;Heebo&#x27;, &#x27;Arial Hebrew&#x27;, &#x27;Noto Sans Hebrew&#x27;, sans-serif" font-size="13.5" font-weight="400" fill="#7a6552" direction="rtl" text-anchor="middle">‏בניית מטריצת עמידה בתנאים לכל</text><text x="581.2933333333333" y="166.325" font-family="&#x27;Heebo&#x27;, &#x27;Arial Hebrew&#x27;, &#x27;Noto Sans Hebrew&#x27;, sans-serif" font-size="13.5" font-weight="400" fill="#7a6552" direction="rtl" text-anchor="middle">‏סעיף</text></g></g><g><g><path d="M38.71851057112205 67.22377863824367 L301.28531332711367 72.29294644296169 L303.8844148705402 211.82354918420313 L38.042670670151594 214.85591889321802" fill="#f5ece1" stroke="none"></path><path d="M38.18212630389028 68.58925989309236 C91.31589531709258 67.31760573338724, 142.93491845358713 66.45206758212842, 304.7276597540484 71.49813380654248 M40.06873724525634 71.0103702539626 C108.4910065790844 72.91798643553783, 179.04713747449878 73.28835839507195, 302.9961742721692 70.32896089738921 M303.6428470383087 68.00271953642368 C302.95700471628845 105.84098468202167, 306.2763769887799 141.1956957504712, 302.94129588703305 216.12709631025788 M304.0955196733275 69.36348453015088 C306.0027649683082 98.59788308409043, 304.51571600857613 129.1839952000417, 301.41967552850633 212.39076986759898 M301.5954557908265 213.08497840437187 C236.62677864908744 216.39849996859843, 171.56270839665623 219.4143856917854, 41.92117707435288 212.3591448936594 M301.6098585067632 213.35115906536933 C216.24533994528608 216.05540963409464, 130.98866757676242 215.01882243029257, 41.03971331126923 214.0597826825374 M42.94110022485245 212.5489538580179 C39.24368599465329 175.4881895141024, 37.32800577691037 139.81281640553846, 42.84064160287369 70.61081232130527 M41.04619318991888 215.49147057980298 C39.8317039489581 172.04319687458684, 39.06076521871823 128.94185157513246, 38.915554733574275 71.54254436939955" fill="none" stroke="#8a9a5b" stroke-width="1.8"></path></g><rect x="39.999999999999886" y="70" width="262.6666666666667" height="7" rx="3" fill="#8a9a5b"></rect><g><path d="M264.52580760564064 88.81311008542282 C267.18208131864293 85.90097939520203, 271.3771330180144 84.92623231293584, 275.3900513534818 85.12045645102924 C279.4029696889492 85.31468058912264, 285.8658883461149 86.97429370680895, 288.60331761844526 89.97845491398324 C291.3407468907756 92.98261612115753, 291.3221408384463 98.54370212922129, 291.81462698746395 103.145423694075 C292.30711313648163 107.74714525892873, 293.5316066158998 113.5390019677231, 291.5582345125513 117.58878430310551 C289.58486240920274 121.63856663848793, 284.09401637989237 126.20010386279628, 279.97439436737284 127.4441177063695 C275.8547723548533 128.6881315499427, 270.7035117961882 126.88692573633759, 266.84050243743405 125.05286736454478 C262.9774930786799 123.21880899275197, 258.46999759581524 120.42624866797708, 256.7963382148481 116.43976747561265 C255.12267883388097 112.45328628324823, 254.8123030453752 106.11469387991589, 256.79854615163123 101.13398021035826 C258.78478925788727 96.15326654080063, 266.0560189786521 89.35830792309244, 268.7137968523844 86.55548545826686 C271.3715747261167 83.75266299344128, 273.0369720181663 83.81649617980183, 272.7452133940252 84.3170454214048 M284.89146795265185 89.63246339362527 C288.4404605991688 91.13837033241693, 290.72478217806054 93.90397357939852, 291.6556273286641 97.75500858855482 C292.5864724792676 101.6060435977111, 291.5930256950293 108.47775793141761, 290.47653885627324 112.73867344856305 C289.36005201751715 116.99958896570848, 287.8516180311883 120.78342587551523, 284.9567062961276 123.32050169142744 C282.0617945610669 125.85757750733964, 276.98034495119646 128.67610637300982, 273.107068445909 127.96112834403623 C269.2337919406216 127.24615031506265, 264.80843833644633 122.50140179879128, 261.71704726440316 119.03063351758598 C258.62565619236 115.55986523638069, 254.52706198937486 111.48724287687577, 254.5587220136499 107.13651865680441 C254.59038203792497 102.78579443673306, 259.4151524144033 96.83377208750254, 261.90700741005355 92.92628819715785 C264.3988624057038 89.01880430681315, 265.6503545053048 84.35342921456149, 269.50985198755143 83.69161531473624 C273.36934946979807 83.02980141491099, 282.42884540503076 87.89619968008856, 285.06399230353344 88.95540479820633 C287.6991392020361 90.0146099163241, 285.3814132885558 89.94094085582854, 285.32073337856764 90.0468460234429" fill="#8a9a5b" stroke="none"></path><path d="M270.73436320036154 85.72569397769138 C274.493815802196 84.18004344298218, 279.258136953104 83.99233180865477, 282.6309685778652 85.83278179792765 C286.0038002026264 87.67323178720054, 289.17533097876634 92.38478512883395, 290.97135294892877 96.76839391332871 C292.7673749190912 101.15200269782346, 294.113595643196 107.60089454588191, 293.40710039883965 112.1344345048962 C292.7006051544833 116.6679744639105, 289.8653277580728 121.28438761358342, 286.7323814827906 123.96963366741443 C283.59943520750835 126.65487972124544, 278.69056903553496 128.667365855174, 274.6094227471463 128.24591082788226 C270.52827645875766 127.8244558005905, 265.4217978296134 124.58765531878083, 262.24550375245866 121.44090350366389 C259.0692096753039 118.29415168854695, 255.85315566356707 113.89872318533848, 255.55165828421775 109.36539993718061 C255.25016090486844 104.83207668902274, 257.27694305161793 98.3650736475638, 260.4365194763627 94.2409640147167 C263.5960959011075 90.11685438186959, 271.52335454336605 85.84307062267422, 274.50911683268646 84.62074214009797 C277.49487912200686 83.39841365752173, 278.16612325871165 86.27751047878016, 278.3510932122851 86.9069931192592 M278.3371482482281 85.41213183145811 C282.1304451164614 85.80941974081232, 285.7515108797479 88.211462251761, 288.3519873971349 91.78445178136182 C290.9524639145219 95.35744131096264, 293.6175295341647 102.28010424189438, 293.9400073525499 106.85006900906302 C294.2624851709351 111.42003377623166, 293.0778373131812 115.61252492423561, 290.28685430744616 119.20424038437368 C287.49587130171113 122.79595584451174, 281.27771975432137 127.36271013470113, 277.1941093181396 128.4003617698914 C273.1104988819579 129.43801340508165, 268.8854958641309 127.86933468265336, 265.7851916903557 125.43015019551522 C262.6848875165805 122.99096570837709, 259.76084018046475 118.19273322057104, 258.5922842754884 113.76525484706261 C257.42372837051204 109.33777647355417, 257.24950106279687 103.08356705407584, 258.7738562604975 98.8652799544646 C260.2982114581981 94.64699285485335, 264.13750881097786 90.97737692890644, 267.73841546169217 88.4555322493951 C271.3393221124065 85.93368756988377, 278.40307465995414 84.27756117077678, 280.37929616478345 83.7342118773966 C282.35551766961277 83.19086258401643, 280.0492814513392 84.74132684843134, 279.5957444906681 85.1954364891141" fill="none" stroke="#8a9a5b" stroke-width="1.8"></path></g><text x="274.6666666666666" y="113" text-anchor="middle" font-size="18" font-weight="700" fill="#ffffff" font-family="&#x27;Heebo&#x27;, sans-serif">3</text><g><text x="199.91666666666657" y="112" font-family="&#x27;Heebo&#x27;, &#x27;Arial Hebrew&#x27;, &#x27;Noto Sans Hebrew&#x27;, sans-serif" font-size="17" font-weight="700" fill="#3d2c1e" direction="rtl" text-anchor="middle">‏הכנת המענה</text></g><g><text x="195.40666666666658" y="148.1" font-family="&#x27;Heebo&#x27;, &#x27;Arial Hebrew&#x27;, &#x27;Noto Sans Hebrew&#x27;, sans-serif" font-size="13.5" font-weight="400" fill="#7a6552" direction="rtl" text-anchor="middle">‏כתיבת המענה המקצועי ואיסוף</text><text x="258.5866666666666" y="166.325" font-family="&#x27;Heebo&#x27;, &#x27;Arial Hebrew&#x27;, &#x27;Noto Sans Hebrew&#x27;, sans-serif" font-size="13.5" font-weight="400" fill="#7a6552" direction="rtl" text-anchor="middle">‏אסמכתאות</text></g></g><g><g><path d="M39.35801409482944 269.39837151765823 L299.75819554726274 271.89059525728226 L301.0903309384981 412.0980655789375 L42.7235608935355 414.00789185762403" fill="#f5ece1" stroke="none"></path><path d="M41.81894813852041 272.26179292412314 C93.45575048501237 268.818228794383, 144.77000355589396 269.3612898193712, 301.17187771650896 269.3518439020566 M40.51592763367515 269.9743264186168 C115.93162086100143 267.794186557606, 189.10112715710946 267.4394598903182, 303.5302881140034 269.91433655651895 M302.90157382885604 268.30362604856487 C298.1497840661624 307.0279795760289, 302.5756137628177 346.7075943339616, 301.9661722938219 411.4361284136772 M302.9718040088812 269.58464604020116 C303.2123977355221 308.56384411212053, 303.362999122546 347.21199360005556, 303.67067848245296 414.4543598234653 M300.38982955221314 415.25897237916246 C231.2760378076722 418.562564321509, 163.73216714220837 415.795297712425, 41.713013485803884 414.2911943648792 M301.68186709346213 414.3410460071591 C223.73328718038147 412.05773516225946, 143.38283435123878 413.2212867305234, 40.962006441692346 412.7402096567165 M38.588133633136636 415.1986051440239 C38.692381326204426 363.6509193521365, 40.4048077025472 311.8170885407179, 40.58752213716495 271.78108309507365 M39.79492425322521 415.38862743973726 C41.07640526527751 377.7109291661158, 41.115153624957685 339.4291354335099, 41.22073964476574 271.4233924925327" fill="none" stroke="#5b7a8a" stroke-width="1.8"></path></g><rect x="39.999999999999886" y="269.9" width="262.6666666666667" height="7" rx="3" fill="#5b7a8a"></rect><g><path d="M274.14590279669954 284.0604092406957 C278.13703555350526 283.8788531891762, 284.46609578675924 287.6507350804479, 287.7591948080304 290.75407462268055 C291.0522938293015 293.8574141649132, 293.44606288059515 298.2505803098053, 293.9044969243262 302.6804464940918 C294.3629309680573 307.11031267837836, 292.4964811668899 313.3839359215171, 290.5097990704169 317.33327172839967 C288.52311697394384 321.28260753528224, 285.5077919077665 324.91598048050054, 281.9844043454879 326.3764613353874 C278.46101678320935 327.8369421902742, 273.06281297685825 327.66040613336963, 269.36947369674533 326.0961568577208 C265.6761344166324 324.531907582072, 261.84680236818554 320.8861175956094, 259.8243686648103 316.9909656814945 C257.8019349614351 313.09581376737964, 256.664489106252 307.48650146111044, 257.23487147649394 302.7252453730316 C257.80525384673587 297.9639892849528, 258.7669459606532 291.049367325729, 263.24666288626184 288.4234291530216 C267.7263798118705 285.79749098031414, 279.5756094904278 286.21981391497775, 284.113173030146 286.96961633678717 C288.65073656986425 287.7194187585966, 290.99686688748017 292.60784780543656, 290.4720441245713 292.92224368387815 M283.75341420256683 289.03965761845575 C287.6406628169748 291.02623988335216, 292.3258985960658 293.81422378408604, 293.96698955268135 297.65081217657087 C295.6080805092969 301.4874005690557, 294.9932568926276 307.3869790670079, 293.59995994225983 312.0591879733649 C292.2066629918921 316.73139687972184, 289.00141251003254 323.26772673826133, 285.6072078504749 325.68406561471267 C282.2130031909172 328.100404491164, 277.7153705874563 327.6233048665795, 273.23473198491405 326.55722123207295 C268.7540933823718 325.4911375975664, 261.64033968066946 322.83773541504183, 258.72337623522134 319.2875638076737 C255.80641278977322 315.7373922003055, 255.15907993158564 309.77761098767274, 255.7329513122254 305.25619158786395 C256.3068226928651 300.73477218805516, 259.7662957939409 295.83149848196854, 262.16660451905983 292.15904740882087 C264.56691324417875 288.4865963356732, 266.4751228060644 284.36844668748284, 270.1348036629389 283.22148514897776 C273.7944845198134 282.0745236104727, 281.84191862740033 284.3644442488263, 284.1246896603067 285.2772781777905 C286.407460693213 286.19011210675467, 284.2674725058282 288.34218317597856, 283.83142986037683 288.69848872276276" fill="#5b7a8a" stroke="none"></path><path d="M262.9291190460789 288.98813514927275 C265.95101778053856 286.44647251868287, 272.89575587802267 284.9632046942382, 276.9570010928364 285.37555678022454 C281.0182463076501 285.7879088662109, 284.61577238748794 288.67040472217343, 287.2965903349612 291.4622476651908 C289.97740828243445 294.2540906082081, 292.53535227152287 297.74898640628936, 293.04190877767587 302.12661443832855 C293.5484652838289 306.5042424703677, 292.3401588756175 313.7058889446921, 290.3359293718792 317.728015857426 C288.33169986814096 321.75014277015987, 284.94420455233535 324.8216267034197, 281.0165317552462 326.2593759147317 C277.08885895815706 327.6971251260437, 270.75749089924625 328.38121653358877, 266.76989258934424 326.35451112529796 C262.7822942794422 324.32780571700715, 258.9366126078345 318.4991721174755, 257.09094189583396 314.09914346498675 C255.24527118383344 309.699114812498, 253.9032628040264 304.6807457071013, 255.69586831734117 299.9543392103654 C257.48847383065595 295.22793271362946, 264.70999741092027 288.18462936989414, 267.8465749757225 285.74070448457127 C270.9831525405247 283.2967795992484, 274.1951239281615 285.13270837235035, 274.51533370615437 285.2907898984282 M272.9579119044278 285.4834662826604 C277.0381680744612 284.7954398824852, 285.13131251036003 285.8718481639729, 288.31427092762806 288.71364082383593 C291.4972293448961 291.55543348369895, 291.94819604145766 297.6956916450258, 292.055662408036 302.5342222418386 C292.1631287746144 307.3727528386514, 291.0038077646912 313.82358386219016, 288.9590691270984 317.7448244047126 C286.91433048950563 321.666064947235, 283.00024518281316 324.6942202910306, 279.7872305824792 326.06166549697315 C276.57421598214523 327.4291107029157, 272.94626984624136 327.48056847073946, 269.6809815250945 325.9494956403679 C266.4156932039477 324.41842280999634, 262.58001359750494 320.86381557924676, 260.19550065559827 316.87522851474387 C257.8109877136916 312.886641450241, 255.0462072626414 306.3261136873771, 255.37390387365437 302.0179732533504 C255.70160048466735 297.70983281932376, 259.12972896745055 294.2335928219368, 262.1616803216762 291.02638591058377 C265.1936316759019 287.81917899923076, 271.7241341049209 283.9598633701577, 273.56561199900847 282.77473178523246 C275.40708989309604 281.58960020030725, 272.85249262906603 283.0313433116028, 273.21054768620166 283.91559640103253" fill="none" stroke="#5b7a8a" stroke-width="1.8"></path></g><text x="274.6666666666666" y="312.9" text-anchor="middle" font-size="18" font-weight="700" fill="#ffffff" font-family="&#x27;Heebo&#x27;, sans-serif">4</text><g><text x="199.91666666666657" y="311.9" font-family="&#x27;Heebo&#x27;, &#x27;Arial Hebrew&#x27;, &#x27;Noto Sans Hebrew&#x27;, sans-serif" font-size="17" font-weight="700" fill="#3d2c1e" direction="rtl" text-anchor="middle">‏בקרת איכות</text></g><g><text x="198.91666666666657" y="348" font-family="&#x27;Heebo&#x27;, &#x27;Arial Hebrew&#x27;, &#x27;Noto Sans Hebrew&#x27;, sans-serif" font-size="13.5" font-weight="400" fill="#7a6552" direction="rtl" text-anchor="middle">‏בדיקה כפולה של כל המסמכים</text><text x="258.5866666666666" y="366.225" font-family="&#x27;Heebo&#x27;, &#x27;Arial Hebrew&#x27;, &#x27;Noto Sans Hebrew&#x27;, sans-serif" font-size="13.5" font-weight="400" fill="#7a6552" direction="rtl" text-anchor="middle">‏והנספחים</text></g></g><g><g><path d="M348.66418428520353 271.67296439707275 L613.2977444340785 271.5882440716028 L613.3629136731226 412.4725819736719 L349.6711177835861 413.25986482203" fill="#f5ece1" stroke="none"></path><path d="M349.03110095981725 270.9429902751539 C399.17093663959884 275.5101875353787, 455.2717553248675 272.370512056614, 611.3740980256363 272.39688967757075 M349.62978468876065 269.038282583271 C429.49323396958516 269.45700753940747, 510.36745134638693 268.37718224529766, 610.1854007825043 269.59971221564865 M610.8269672860702 268.7045325607061 C613.0140300827031 308.3149744700361, 612.1463172035222 352.319492917452, 609.6577153672774 413.24516051709645 M610.5147550111014 269.90580755025144 C609.0886971694026 318.62980514015067, 610.8769489031826 368.53999200006945, 611.3883481030662 413.41794977933165 M612.9422056602665 412.4416306739531 C539.6832993129236 415.73529299441964, 464.56829255442716 417.3675454130646, 350.17151656392156 416.323243836099 M610.4205423468277 412.8852651089489 C537.3422332421436 414.8466815501577, 464.4436677923819 415.6647040504876, 349.55096623878217 414.06630447089566 M349.3018337080875 411.5482564300298 C346.80774332442223 380.6936491901707, 352.1482762948507 347.88136067589744, 347.00106933812293 273.0513538688421 M347.21032198319824 415.3857842996716 C350.9877732482636 383.4786614576447, 351.8362086978638 350.01641929188736, 348.9925912226239 271.4042406156659" fill="none" stroke="#9a5b7a" stroke-width="1.8"></path></g><rect x="348.6666666666666" y="269.9" width="262.6666666666667" height="7" rx="3" fill="#9a5b7a"></rect><g><path d="M595.3409237704822 290.0582751224425 C598.7099667602919 292.0266737045389, 600.4785365455912 297.1798379320432, 601.3674172791898 301.0572366847938 C602.2562980127884 304.9346354375444, 602.3236038425086 309.7601296742367, 600.6742081720743 313.3226676389461 C599.0248125016399 316.8852056036555, 595.1718953229444 320.51358890693984, 591.4710432565835 322.4324644730503 C587.7701911902226 324.35134003916073, 582.5416189535092 326.0313492109466, 578.4690957739092 324.8359210356086 C574.3965725943092 323.64049286027057, 569.2862139735935 318.60469016668276, 567.0359041789835 315.25989542102207 C564.7855943843736 311.9151006753614, 564.343920348406 308.61556901314, 564.9672370062494 304.76715256164454 C565.5905536640929 300.9187361101491, 567.7445275393925 295.0370972858252, 570.7758041260442 292.1693967120493 C573.807080712696 289.3016961382734, 578.5906375217852 287.3313709976863, 583.1548965261597 287.56094911898924 C587.7191555305343 287.7905272402922, 595.7393839548945 292.0224899378262, 598.1613581522913 293.54686543986713 C600.5833323496881 295.07124094190806, 598.2776643168457 296.68001158636406, 597.6867417105404 296.70720213123496 M591.2813917650477 291.0049183852413 C594.8066559925328 292.53000625015954, 599.0925613400638 295.4027318088947, 600.7437983349736 298.6657528335388 C602.3950353298834 301.9287738581829, 602.1588291831931 306.76821454435924, 601.1888137345069 310.5830445331061 C600.2187982858206 314.39787452185294, 598.1169630994847 319.5712665990528, 594.923705642856 321.5547327660198 C591.7304481862274 323.5381989329868, 586.4169934112646 323.1105782123762, 582.0292689947348 322.48384153490815 C577.6415445782051 321.8571048574401, 571.339711799433 320.27317049887165, 568.5973591436773 317.7943127012114 C565.8550064879216 315.3154549035512, 565.859065984318 311.7027231763596, 565.575153060201 307.6106947489466 C565.2912401360841 303.51866632153366, 564.5852956599376 296.91089220408634, 566.8938815989754 293.24214213673355 C569.2024675380133 289.57339206938076, 575.2670792393164 286.412348351064, 579.4266686944281 285.59819434483 C583.5862581495398 284.784040338596, 589.9211680517449 287.64707771793496, 591.8514183296459 288.3572180993297 C593.7816686075469 289.06735848072447, 591.1195651535137 289.2932984829436, 591.0081703618341 289.85903663319846" fill="#9a5b7a" stroke="none"></path><path d="M590.9092762822049 288.9718782936085 C594.56665292997 289.93139212829635, 597.3438526351342 293.5186646407133, 599.1343358333868 296.91533820420744 C600.9248190316393 300.31201176770156, 602.5571081127127 305.5050621615312, 601.65217547172 309.3519196745733 C600.7472428307274 313.1987771876154, 597.0568723132347 317.5620333325707, 593.7047399874306 319.99648328245985 C590.3526076616264 322.430933232349, 585.2480383969248 324.2329507737775, 581.539381516895 323.95861937390816 C577.8307246368652 323.68428797403885, 574.029219425917 321.182076801649, 571.4527987072515 318.35049488324404 C568.8763779885861 315.5189129648391, 566.9264871517872 310.91693380657995, 566.0808572049026 306.96912786347866 C565.235227258018 303.0213219203774, 564.443209982813 297.70947349074436, 566.3790190259439 294.6636592246364 C568.3148280690748 291.6178449585284, 573.5054267195817 289.5522906685968, 577.6957114636881 288.69424226683094 C581.8859962077945 287.83619386506507, 588.7974261169221 289.20868810334366, 591.5207274905825 289.51536881404127 C594.244028864243 289.8220495247389, 593.9412372316577 290.42355781908987, 594.0355197056507 290.5343265310166 M580.450450938204 289.352682533683 C583.9461081445484 288.431274428265, 588.5788197478414 287.2205207890405, 592.2051657070785 288.9062671679068 C595.8315116663157 290.59201354677305, 600.9485203929792 295.82120327424957, 602.2085266936265 299.4671608068807 C603.4685329942738 303.11311833951186, 600.9743175835744 307.27252976764174, 599.7652035109621 310.7820123636936 C598.5560894383499 314.2914949597454, 597.8268740020892 318.5013902027366, 594.953842257953 320.52405638319175 C592.0808105138169 322.5467225636469, 586.4871497401507 323.3735661029626, 582.5270130461453 322.91800944642443 C578.5668763521398 322.46245278988624, 574.0022159638246 320.7093610031164, 571.1930220939204 317.79071644396276 C568.3838282240162 314.87207188480915, 565.8711044648325 309.00471385244623, 565.6718498267197 305.4061420915028 C565.472595188607 301.8075703305593, 567.6721853678958 299.49812064473775, 569.9974942652442 296.1992858783021 C572.3228031625925 292.9004511118664, 578.0071149075018 287.2530677264765, 579.6237032108099 285.6131334928886 C581.2402915141181 283.9731992593007, 579.9274621553328 285.80691530192854, 579.6970240850934 286.3596804767749" fill="none" stroke="#9a5b7a" stroke-width="1.8"></path></g><text x="583.3333333333333" y="312.9" text-anchor="middle" font-size="18" font-weight="700" fill="#ffffff" font-family="&#x27;Heebo&#x27;, sans-serif">5</text><g><text x="536.6333333333332" y="311.9" font-family="&#x27;Heebo&#x27;, &#x27;Arial Hebrew&#x27;, &#x27;Noto Sans Hebrew&#x27;, sans-serif" font-size="17" font-weight="700" fill="#3d2c1e" direction="rtl" text-anchor="middle">‏הגשה</text></g><g><text x="486.52333333333326" y="348" font-family="&#x27;Heebo&#x27;, &#x27;Arial Hebrew&#x27;, &#x27;Noto Sans Hebrew&#x27;, sans-serif" font-size="13.5" font-weight="400" fill="#7a6552" direction="rtl" text-anchor="middle">‏הגשת ההצעה עם מרווח ביטחון לפני</text><text x="577.7833333333333" y="366.225" font-family="&#x27;Heebo&#x27;, &#x27;Arial Hebrew&#x27;, &#x27;Noto Sans Hebrew&#x27;, sans-serif" font-size="13.5" font-weight="400" fill="#7a6552" direction="rtl" text-anchor="middle">‏המועד</text></g></g></svg>