<svg width="960" height="508.8" viewBox="0 0 960 508.8" xmlns="http://www.w3.org/2000/svg" style="background:#fdf8f2"><rect width="960" height="508.8" fill="#fdf8f2"></rect><g><text x="480" y="46" font-family="&#x27;Heebo&#x27;, &#x27;Arial Hebrew&#x27;, &#x27;Noto Sans Hebrew&#x27;, sans-serif" font-size="28" font-weight="700" fill="#3d2c1e" direction="rtl" text-anchor="middle">‏ארבעה עקרונות לשימוש נכון ב-⁦AI⁩</text></g><g><g><path d="M37.43950352370739 69.07459287941455 L921.6728822201491 72.89764881432056 L920.4059160679578 154.87451639473437 L41.4808902233839 160.151972964406" fill="#f5ece1" stroke="none"></path><path d="M40.54864860653877 70.61688623309135 C215.79931366950274 69.60306858086585, 391.6494330781698 67.75133338952064, 919.4920994198322 70.25109472155572 M39.584854039549825 70.16934310972691 C235.0709144547582 68.08934450447559, 429.63462074399 67.72475403130055, 919.6285604566335 70.48180215895177 M922.4587267905474 67.20090651214123 C921.1103595717385 91.04336527946404, 922.2168169959024 105.52463935440406, 922.2248764067888 156.3090321034193 M920.4762843355536 68.7211615100503 C920.8289702274725 92.16211960894054, 919.2666205742285 117.12031556183472, 920.6510029539465 158.26358995586634 M920.6737930309772 157.5633983027935 C730.8676948282123 163.147968991518, 539.3389415961504 162.80011319470407, 41.17533222317696 157.4417449748516 M919.396206998229 157.60801151335238 C589.140688022077 158.51347782337663, 258.9032446074486 158.33974062168596, 40.600927819609645 157.72678037703037 M38.84703340828419 157.24965128600596 C40.99887593064755 130.10141349134034, 38.226982524733245 107.68163944179192, 40.94688053429127 68.07027077376843 M40.34873106330633 159.29715685993432 C37.89550793927461 124.75139655250123, 38.705195029194655 92.45461238032206, 40.705184911191466 71.58084812313318" fill="none" stroke="#c1542f" stroke-width="1.8"></path></g><rect x="914" y="70" width="6" height="87.7" rx="3" fill="#c1542f"></rect><g><path d="M879.3431175740087 87.21832410430603 C884.2222878345104 87.04378536668645, 888.7266815667999 89.95211391270621, 892.2434959049953 94.07098874640735 C895.7603102431906 98.1898635801085, 899.9851706842691 106.13158747401128, 900.4440036031808 111.93157310651289 C900.9028365220926 117.73155873901449, 898.1805942163863 124.3127882237522, 894.996493418466 128.87090254141697 C891.8123926205457 133.42901685908174, 886.0502695613817 137.68256813799852, 881.3393988156587 139.28025901250152 C876.6285280699357 140.87794988700452, 871.2792147431701 140.5382195538934, 866.731268944128 138.45704778843498 C862.183323145086 136.37587602297654, 856.5476737169853 132.25832250872128, 854.0517240214066 126.7932284197509 C851.5557743258279 121.32813433078053, 850.3527779156351 111.73265868352377, 851.7555707706559 105.66648325461269 C853.1583636256768 99.6003078257016, 857.2810752187759 93.6355245600673, 862.4684811515318 90.39617584628441 C867.6558870842878 87.15682713250152, 879.0726880175096 86.39698682157304, 882.8800063671918 86.23039097191531 C886.687324716874 86.06379512225759, 885.6344700471291 88.91545241639695, 885.3123912496247 89.39660074833809 M890.4535169186285 91.70724277722611 C894.3931692215166 94.65352220880202, 898.8496286205185 101.42388917837442, 899.9538204850231 107.28935391309211 C901.0580123495278 113.1548186478098, 899.5765676818805 121.61088991706293, 897.0786681056564 126.90003118553227 C894.5807685294324 132.1891724540016, 889.2369621821858 136.97713646889272, 884.9664230276787 139.02420152390812 C880.6958838731716 141.0712665789235, 876.1721876248621 141.0285265367823, 871.4554331786142 139.18242151562458 C866.7386787323662 137.33631649446687, 859.7173300329481 132.70749723446278, 856.6658963501908 127.94757139696183 C853.6144626674335 123.1876455594609, 852.5116512976606 116.24333148203898, 853.1468310820701 110.62286649061899 C853.7820108664796 105.002401499199, 856.7510380926469 98.14933521207547, 860.4769750566477 94.22478144844186 C864.2029120206485 90.30022768480825, 870.8751107109808 87.73733509609718, 875.5024528660747 87.07554390881737 C880.1297950211685 86.41375272153755, 885.6857137733599 89.27695472430906, 888.2410279872109 90.25403432476297 C890.796342201062 91.23111392521687, 890.6435330774711 92.21210606199084, 890.8343381491811 92.93802151154075" fill="#c1542f" stroke="none"></path><path d="M873.2307292651253 87.28127306216817 C877.9883836454878 86.26993786246938, 883.6199711928941 89.01082437378916, 887.7287465982065 92.25881912201152 C891.8375220035189 95.50681387023387, 896.2811142704395 101.29243842777937, 897.8833816969997 106.76924155150228 C899.4856491235598 112.24604467522518, 899.227366755973 120.03916155509866, 897.3423511575674 125.11963786434895 C895.4573355591617 130.20011417359925, 891.2216779483714 134.72848397556984, 886.5732881065657 137.252099407004 C881.9248982647599 139.77571483843818, 874.5531517592108 141.59811763079452, 869.4520121067329 140.26133045295398 C864.3508724542551 138.92454327511345, 858.7773513008225 133.67691667009794, 855.9664501916984 129.2313763399608 C853.1555490825743 124.78583600982365, 852.1174207260425 119.40558980560004, 852.5866054519887 113.58808847213112 C853.0557901779349 107.7705871386622, 854.8994088543019 98.76507084320367, 858.7815585473757 94.32636833914721 C862.6637082404494 89.88766583509074, 872.7472497879785 88.35182124015866, 875.8795036104314 86.95587344779231 C879.0117574328842 85.55992565542597, 877.7277652742334 85.36979689567872, 877.5750814820931 85.95068158494915 M875.5108440339958 84.68068323903591 C880.1831734837482 83.85769234831727, 887.050927210932 86.23865501280527, 890.8731559456646 90.30276900368244 C894.6953846803973 94.36688299455962, 897.4886599378223 103.25376446735432, 898.4442164423921 109.06536718429895 C899.3997729469619 114.87696990124358, 899.1702302749868 119.97414358264467, 896.6064949730835 125.17238530535026 C894.0427596711802 130.37062702805585, 887.5500524665517 137.95712390822067, 883.0618046309719 140.25481752053247 C878.573556795392 142.55251113284427, 873.9632071393429 140.86504109133668, 869.6770079596043 138.958546979221 C865.3908087798658 137.05205286710535, 860.3041836285978 133.58823165100833, 857.3446095525404 128.81585284783853 C854.385035476483 124.04347404466873, 851.4893529120012 115.99864809740038, 851.9195635032601 110.32427416020225 C852.3497740945189 104.64990022300412, 856.2847393815955 98.66156528378818, 859.9258731000936 94.76960922464974 C863.5670068185916 90.8776531655113, 870.8741487846148 88.03804083087029, 873.7663658142482 86.97253780537159 C876.6585828438815 85.90703477987289, 876.8066418910262 87.9354455629716, 877.2791752778936 88.37659107165754" fill="none" stroke="#c1542f" stroke-width="1.8"></path></g><text x="876" y="121.85" text-anchor="middle" font-size="23" font-weight="700" fill="#ffffff" font-family="&#x27;Heebo&#x27;, sans-serif">1</text><g><text x="777.3" y="100" font-family="&#x27;Heebo&#x27;, &#x27;Arial Hebrew&#x27;, &#x27;Noto Sans Hebrew&#x27;, sans-serif" font-size="19" font-weight="700" fill="#3d2c1e" direction="rtl" text-anchor="middle">‏אימות עובדתי</text></g><g><text x="664.5" y="132.7" font-family="&#x27;Heebo&#x27;, &#x27;Arial Hebrew&#x27;, &#x27;Noto Sans Hebrew&#x27;, sans-serif" font-size="15" font-weight="400" fill="#7a6552" direction="rtl" text-anchor="middle">‏כל פלט של מודל שפה מחייב בדיקה מול מקור מוסמך</text></g></g><g><g><path d="M38.07900704741478 177.0491857588291 L920.1457644402981 178.29529762864112 L917.6118321359157 260.94903278946873 L39.76178044676781 265.103945928812" fill="#f5ece1" stroke="none"></path><path d="M39.817297213077545 175.6537724661827 C216.87862733900548 179.2581371617317, 392.57886615633964 178.11466677904127, 920.2641988396645 174.92218944311142 M39.80970807909966 175.3986862194538 C253.50182890951635 176.8706890089512, 466.62924148797987 176.1415080626011, 919.8971209132671 176.0236043179035 M921.7174535810948 173.30181302428244 C920.4239191434771 197.0467305589281, 922.6368339918048 214.8692787088081, 921.2497528135776 263.8180642068386 M919.3525686711073 174.74232302010057 C918.654740454945 204.0842392178811, 918.730041148457 233.2606311236694, 919.7020059078932 262.92717991173265 M920.0675860619544 264.406796605587 C716.4553896564245 269.94393798303605, 511.9578831923008 269.2482263894081, 41.07066444635391 264.1634899497032 M919.4324139964581 263.85602302670475 C610.9213760441542 258.7549556467533, 301.16648921489707 259.68748124337196, 40.56185563921928 262.81356075406075 M40.894066816568376 265.6993025720119 C40.2009518612951 228.94282698268069, 41.05716504946649 195.24327888358383, 38.69376106858253 175.04054154753683 M39.09746212661266 264.9943137198686 C38.79421587854922 234.18279310500247, 40.4135900583893 204.66922476064414, 39.810369822382924 177.26169624626635" fill="none" stroke="#d98841" stroke-width="1.8"></path></g><rect x="914" y="175.7" width="6" height="87.7" rx="3" fill="#d98841"></rect><g><path d="M860.7410197668769 198.50229989616048 C864.2822801351076 194.66378520953504, 871.9688736973934 192.85055518395387, 877.164412501408 192.74031488120804 C882.3599513054227 192.6300745784622, 888.1167083857215 193.96791590502718, 891.9142525909646 197.84085807968543 C895.7117967962076 201.71380025434368, 898.9379981719546 210.07071744442476, 899.9496777328662 215.9779679291575 C900.9613572937778 221.88521841389024, 900.8179495833698 228.10502180911598, 897.9843299564342 233.28436098808197 C895.1507103294986 238.46370016704796, 888.245386461404 245.2054910431832, 882.9479599712527 247.0540030029534 C877.6505334811013 248.90251496272361, 871.1205027469687 246.56779520626492, 866.1997710155263 244.3754327467033 C861.2790392840839 242.18307028714167, 855.6025453341017 238.8401644812481, 853.4235695825986 233.89982824558365 C851.2445938310955 228.9594920099192, 850.6204592401712 221.52299126020523, 853.1259165065076 214.73341533271656 C855.631373772844 207.9438394052279, 864.7661259628319 197.0767495803307, 868.4563131806173 193.1623726806516 C872.1465003984026 189.2479957809725, 875.3251315934199 190.4974564796991, 875.2670398132201 191.24715393464194 M889.2855593093165 196.8234455121516 C893.5712538758496 199.55488879828056, 896.9429263627961 207.06519078097872, 898.0680689938745 212.93329688284845 C899.1932116249528 218.80140298471818, 898.1033218225258 227.01141479123604, 896.0364150957868 232.03208212337003 C893.9695083690477 237.05274945550403, 889.7352108430301 240.41706248825284, 885.6666286334405 243.0573008756524 C881.5980464238509 245.69753926305197, 876.2549264318095 249.36964397601287, 871.6249218382488 247.8735124477674 C866.9949172446882 246.37738091952195, 861.4738780137084 238.93209786695348, 857.8866010720766 234.08051170617966 C854.2993241304448 229.22892554540584, 849.6337169071056 224.57501356177804, 850.1012601884579 218.76399548312452 C850.5688034698102 212.952977404471, 857.0622869772247 203.6220912629638, 860.6918607601903 199.21440323425853 C864.3214345431558 194.80671520555325, 866.7487094321564 192.77278181419558, 871.8787028862508 192.31786731089286 C877.0086963403453 191.86295280759015, 888.5656504909743 195.65447867446534, 891.4718214847572 196.48491621444214 C894.3779924785401 197.31535375441894, 889.4997881150473 197.0226601972021, 889.3157288489479 197.30049255075363" fill="#d98841" stroke="none"></path><path d="M865.9272973990375 195.87644021586655 C869.9858961792112 192.87187668838902, 875.8067525903087 191.79248039076526, 880.5084972903067 192.78706137375474 C885.2102419903046 193.78164235674421, 890.6867005600968 197.022844589124, 894.137765599025 201.8439261138035 C897.5888306379532 206.665007638483, 901.0294456985964 215.4928502572388, 901.2148875238757 221.7135505218318 C901.4003293491551 227.93425078642477, 898.6687777000614 234.75449656692712, 895.2504165507012 239.16812770136133 C891.832055401341 243.58175883579554, 885.887906927345 247.65493773609268, 880.7047206277143 248.195337328437 C875.5215343280836 248.73573692078133, 868.7023204689644 245.54662837247594, 864.1512987529169 242.4105252554273 C859.6002770368693 239.27442213837867, 854.9461132303353 234.7907443460959, 853.3985903314291 229.37871862614523 C851.8510674325229 223.96669290619457, 851.1190440604978 216.08349371875585, 854.8661613594797 209.93837093572333 C858.6132786584617 203.7932481526908, 870.7134434777319 194.8283772045439, 875.8812941253204 192.50798192795017 C881.049144772909 190.18758665135644, 886.0017814189299 195.41705147021975, 885.8732652450115 196.0159992761609 M868.9738764554219 191.74842119094617 C873.6915016603205 189.5769370860627, 879.9508853026093 190.12552096916488, 885.0320954118599 193.06912827162472 C890.1133055211105 196.01273557408456, 897.1177734568009 203.6332443629596, 899.4611371109256 209.41006500570523 C901.8045007650503 215.18688564845087, 900.5755316199377 222.2777314564706, 899.0922773366084 227.73005212809844 C897.6090230532791 233.18237279972627, 894.5700017545437 238.60874413115192, 890.5616114109498 242.12398903547222 C886.5532210673559 245.63923393979252, 880.0535389062784 249.45679635786516, 875.0419352750453 248.82152155402022 C870.0303316438121 248.1862467501753, 864.0629338918793 242.9772722304456, 860.4919896235511 238.31234021240255 C856.921045355223 233.64740819435949, 853.9684787912803 226.39460461995213, 853.6162696650764 220.83192944576192 C853.2640605388725 215.2692542715717, 855.6489547415575 209.57336720590226, 858.378734866328 204.93628916726118 C861.1085149910986 200.2992111286201, 868.0981725808628 194.82063833941396, 869.9949504136996 193.00946121391542 C871.8917282465364 191.19828408841687, 869.8559809380953 193.91787751518208, 869.759401863349 194.06922641426985" fill="none" stroke="#d98841" stroke-width="1.8"></path></g><text x="876" y="227.54999999999998" text-anchor="middle" font-size="23" font-weight="700" fill="#ffffff" font-family="&#x27;Heebo&#x27;, sans-serif">2</text><g><text x="777.3" y="205.7" font-family="&#x27;Heebo&#x27;, &#x27;Arial Hebrew&#x27;, &#x27;Noto Sans Hebrew&#x27;, sans-serif" font-size="19" font-weight="700" fill="#3d2c1e" direction="rtl" text-anchor="middle">‏הנדסת פרומפט</text></g><g><text x="668.4" y="238.39999999999998" font-family="&#x27;Heebo&#x27;, &#x27;Arial Hebrew&#x27;, &#x27;Noto Sans Hebrew&#x27;, sans-serif" font-size="15" font-weight="400" fill="#7a6552" direction="rtl" text-anchor="middle">‏הקשר, דוגמאות ומבנה פלט משפרים תוצאות דרמטית</text></g></g><g><g><path d="M38.71851057112217 278.62377863824366 L918.6186466604471 283.69294644296167 L921.2177482038736 367.0235491842031 L38.04267067015171 370.055918893218" fill="#f5ece1" stroke="none"></path><path d="M39.08594581961632 280.690658699274 C215.39794100850824 277.64920574259753, 390.94829923450953 277.21400016856194, 921.0362982594967 282.1532841646671 M40.03456211864948 281.9080293291807 C271.93274336427453 285.6520335134268, 504.90386223196987 285.8382620939016, 920.1656813699007 281.56540647685523 M920.9761803716422 279.40271953642366 C919.7374787152156 303.0500958383921, 923.0568509877071 324.2139180632122, 920.2746292203665 371.3270963102579 M921.4288530066609 280.7634845301509 C922.4869106824175 298.46635882682165, 920.9998617226854 317.52094668550416, 918.7530088618398 367.59076986759896 M919.4613790929318 368.6901949083805 C702.0430844846368 374.179906974554, 484.5768247884512 375.6963395841121, 40.96599666953087 368.32523492455476 M919.4686209946871 368.82403454005714 C631.4220640662312 371.5404334701299, 343.4297338223457 371.0192218650579, 40.522783458828926 369.1803411310911 M42.94110022485256 367.7489538580179 C39.403027791942655 345.32424047402105, 37.48734757419974 324.2849183253757, 42.8406416028738 282.01081232130525 M41.046193189918995 370.69147057980297 C39.692923817823825 343.6141896575037, 38.921985087583955 316.88383714096614, 38.91555473357439 282.9425443693995" fill="none" stroke="#8a9a5b" stroke-width="1.8"></path></g><rect x="914" y="281.4" width="6" height="87.7" rx="3" fill="#8a9a5b"></rect><g><path d="M876.3496008592664 301.38777328938994 C881.1014139131386 300.6255138506665, 886.315503692379 302.09141751721285, 890.1286618944027 305.27325165499224 C893.9418200964265 308.4550857927716, 897.8609904105916 315.42380216131835, 899.2285500714087 320.47877811606617 C900.5961097322257 325.533754070814, 900.5519177890527 331.1045276259582, 898.3340198593049 335.60310738347926 C896.1161219295572 340.1016871410003, 890.8368352609475 345.3285768952349, 885.9211624929222 347.47025666119225 C881.005489724897 349.6119364271496, 873.7758467836259 350.05855118847217, 868.8399832511532 348.4531859792234 C863.9041197186805 346.84782076997465, 858.9532561395706 342.16563491889656, 856.3059812980862 337.8380654056996 C853.6587064566017 333.5104958925026, 852.1633358992533 327.67081446862653, 852.9563342022468 322.48776890004143 C853.7493325052403 317.30472333145633, 856.7499534205002 310.38643497287035, 861.0639711160471 306.73979199418915 C865.377988811594 303.09314901550795, 875.9202661801722 301.48908564393, 878.8404403755285 300.60791102795423 C881.7606145708847 299.72673641197844, 878.7925847241049 300.90972366436574, 878.5850162881848 301.4527442983342 M888.1166310643547 304.9436220300061 C892.7480719984568 307.7794702906414, 898.534680206162 314.43583804314846, 900.3806786782316 319.5549062117407 C902.2266771503012 324.6739743803329, 901.5283827836402 330.91630679311345, 899.1926218967725 335.6580310415595 C896.8568610099048 340.3997552900056, 890.932409301245 345.8086625668778, 886.3661133570257 348.00525170241724 C881.7998174128064 350.2018408379567, 877.0377494145104 350.48929688073156, 871.7948462314567 348.83756585479637 C866.5519430484031 347.1858348288612, 858.3316051618349 342.40340998632524, 854.9086942587041 338.0948655468059 C851.4857833555734 333.7863211072866, 850.9575049300139 328.2098774444727, 851.2573808126722 322.98629921768054 C851.5572566953305 317.7627209908884, 853.1749955849609 310.3869661887986, 856.7079495546539 306.75339618605324 C860.2409035243468 303.11982618330785, 866.8228221654963 301.3571499177088, 872.4551046308296 301.18487920120833 C878.087387096163 301.01260848470787, 887.9448003974957 305.14944210437886, 890.5016443466537 305.71977188705034 C893.0584882958118 306.2901016697218, 888.3550757524259 304.12717486939937, 887.7961683257779 304.60685789723703" fill="#8a9a5b" stroke="none"></path><path d="M888.0993161452632 305.41797856837326 C892.7306705857269 307.58125326991694, 897.6207617026131 311.7738368715587, 899.2539536803939 316.61600449768457 C900.8871456581747 321.45817212381047, 899.8037827321294 329.6652371172116, 897.8984680119481 334.47098432512854 C895.9931532917668 339.2767315330455, 892.2286414540755 342.9611255486384, 887.8220653593063 345.4504877451864 C883.4154892645371 347.93984994173445, 876.4013628108278 350.2442810234258, 871.459011443333 349.4071575044169 C866.5166600758382 348.570033985408, 861.4567831894428 344.5455598141668, 858.1679571543373 340.42774663113295 C854.8791311192317 336.3099334480991, 851.7684809143583 330.11396177819034, 851.7260552326998 324.70027840621395 C851.6836295510412 319.28659503423756, 854.5954259939954 311.912426557633, 857.9134030643861 307.9456463992745 C861.2313801347768 303.978866240916, 865.7440775774741 300.7820472276633, 871.6339176550443 300.89959745606274 C877.5237577326146 301.01714768446215, 889.2866202739858 306.62891645156805, 893.2524435298077 308.6509477696709 C897.2182667856296 310.67297908777374, 895.8226950604987 313.05795539809384, 895.4288571899755 313.0317853646797 M866.9042143987605 303.3228402098623 C871.4541788849576 300.92533972173, 878.1836267346944 298.94355284290816, 882.9125314013871 300.44024194189154 C887.6414360680799 301.9369310408749, 892.3424246507064 308.1451731611232, 895.2776423989172 312.3029748037625 C898.212860147128 316.4607764464018, 900.8623329482157 320.708970229102, 900.5238378906516 325.38705179772745 C900.1853428330876 330.0651333663529, 896.580771922807 336.32990575215064, 893.2466720535331 340.3714642155151 C889.9125721842591 344.4130226788796, 885.3226363535748 349.03117766998696, 880.5192386750078 349.63640257791445 C875.7158409964409 350.24162748584195, 869.1451215211401 347.2161263154168, 864.4262859821314 344.00281366308 C859.7074504431226 340.78950101074327, 854.0240004498803 334.78985382705287, 852.2062254409556 330.356526663894 C850.3884504320308 325.9231995007351, 851.1388667462317 321.87009417986485, 853.5196359285829 317.4028506841267 C855.9004051109342 312.93560718838853, 864.2938485464474 305.75713926972827, 866.4908405350634 303.55306568946514 C868.6878325236794 301.348992109202, 866.6717344886705 303.69196826417505, 866.7015878602787 304.17840920254787" fill="none" stroke="#8a9a5b" stroke-width="1.8"></path></g><text x="876" y="333.25" text-anchor="middle" font-size="23" font-weight="700" fill="#ffffff" font-family="&#x27;Heebo&#x27;, sans-serif">3</text><g><text x="782.525" y="311.4" font-family="&#x27;Heebo&#x27;, &#x27;Arial Hebrew&#x27;, &#x27;Noto Sans Hebrew&#x27;, sans-serif" font-size="19" font-weight="700" fill="#3d2c1e" direction="rtl" text-anchor="middle">‏פרטיות מידע</text></g><g><text x="668.4" y="344.09999999999997" font-family="&#x27;Heebo&#x27;, &#x27;Arial Hebrew&#x27;, &#x27;Noto Sans Hebrew&#x27;, sans-serif" font-size="15" font-weight="400" fill="#7a6552" direction="rtl" text-anchor="middle">‏אין להזין מידע רגיש או מזהה למערכות חיצוניות</text></g></g><g><g><path d="M39.35801409482956 386.5983715176582 L917.0915288805961 389.09059525728225 L918.4236642718315 473.0980655789375 L42.72356089353561 475.00789185762403" fill="#f5ece1" stroke="none"></path><path d="M40.91459442615509 388.2875449323654 C216.47725467801098 387.3042743234634, 391.87773231267937 387.57733355808256, 919.248397679329 386.8243788862228 M40.25941615819931 387.13737243890756 C291.6436578190327 383.1693780179024, 541.8984829759597 382.9910161252022, 920.4342418265343 387.107208635807 M920.2349071621895 385.50362604856485 C916.2446382869541 409.05346111785616, 920.6704679836095 433.5585574176162, 919.2995056271553 472.4361284136772 M920.3051373422146 386.78464604020115 C920.3126809098899 410.3884784357622, 920.4632822969138 433.66126224733887, 921.0040118157864 475.4543598234653 M918.855172123909 475.533593211174 C687.6307793128491 480.975875966072, 457.1957663846016 479.58445277881617, 40.861328892707824 475.0469798994064 M919.5048279929161 475.0720460534095 C653.2027520883083 471.7819112935066, 385.6929784297942 472.3669624867439, 40.48371127843857 474.2671215081214 M38.58813363313675 476.1986051440239 C38.60510372259021 444.16565396536134, 40.317530098932984 411.84655776716767, 40.58752213716507 388.98108309507364 M39.794924253225325 476.38862743973726 C40.59163175709843 453.04558621000496, 40.63038011677861 429.0984495212882, 41.22073964476586 388.6233924925327" fill="none" stroke="#5b7a8a" stroke-width="1.8"></path></g><rect x="914" y="387.09999999999997" width="6" height="87.7" rx="3" fill="#5b7a8a"></rect><g><path d="M889.521533621633 410.9704452426104 C894.0173128846722 413.521881327751, 898.7668374220655 419.9115689477686, 900.0515952300209 424.742648844668 C901.3363530379763 429.5737287415674, 899.6567311583827 435.19060253188076, 897.2300804693658 439.95692462400666 C894.8034297803489 444.72324671613256, 889.9866456252115 450.86106787823473, 885.4916910959192 453.34058139742336 C880.996736566627 455.820094916612, 874.9011733927996 456.37611940252015, 870.2603532936124 454.8340057391386 C865.6195331944252 453.29189207575706, 860.7442442496493 448.34503954947684, 857.6467705007962 444.0878994171341 C854.549296751943 439.8307592847914, 851.4286297814479 434.3455822256427, 851.6755108004934 429.29116494508224 C851.9223918195389 424.2367476645218, 855.6406369420965 417.36485460420823, 859.1280566150695 413.7613957337714 C862.6154762880424 410.15793686333456, 866.5011284252748 407.49090888266903, 872.600028838331 407.67041172246115 C878.6989292513872 407.8499145622533, 891.7111629617214 412.57950841811277, 895.7214590934062 414.83841277252395 C899.7317552250911 417.09731712693514, 897.1271322454633 421.0005767592221, 896.66180562844 421.2238378489283 M891.1467438846327 410.0742446933161 C895.4236337931756 412.6983928501568, 897.3248968538644 420.0971135145302, 898.4916533022051 425.2192173924078 C899.6584097505458 430.34132127028545, 900.0517474012105 436.33612078290514, 898.1472825746771 440.8068679605819 C896.2428177481437 445.2776151382586, 891.4285460060318 449.958167357125, 887.0648643430046 452.04370045846815 C882.7011826799775 454.1292335598113, 877.1206420401284 454.6258007327636, 871.965192596514 453.32006656864087 C866.8097431528997 452.01433240451814, 859.3905007625285 447.91136342225616, 856.1321676813184 444.20929547373186 C852.8738346001082 440.50722752520755, 852.2830134831974 435.82066812657393, 852.4151941092529 431.1076588774949 C852.5473747353084 426.39464962841583, 853.489171745443 420.0443619581081, 856.9252514376514 415.93123997925744 C860.3613311298598 411.8181180004068, 867.5974627898132 407.08995471674837, 873.031672262503 406.42892700439114 C878.4658817351927 405.7678992920339, 886.6231756431167 411.5393181281347, 889.53050827379 411.965073705114 C892.4378409044633 412.39082928209325, 890.7094076514935 408.9521008665671, 890.4756680465429 408.98346046626665" fill="#5b7a8a" stroke="none"></path><path d="M880.9669534213383 407.8639706517194 C886.0760628744206 408.7096854548493, 892.7243222200506 412.4741453528006, 895.8740977910111 416.1416341546139 C899.0238733619716 419.8091229564272, 900.2101803706126 424.83546963874346, 899.8656068471015 429.8689034625991 C899.5210333235904 434.9023372864548, 897.259409505712 442.18961783168106, 893.8066566499444 446.342237097748 C890.3539037941769 450.49485636381496, 884.0358306492834 454.03216038838355, 879.1490897124962 454.7846190590007 C874.262348775709 455.53707772961786, 869.0064293600666 453.3659646817919, 864.4862110292214 450.8569891214508 C859.9659926983762 448.34801356110967, 853.9301407822486 444.6606879025497, 852.0277797274254 439.7307656969539 C850.1254186726021 434.8008434913581, 851.053304624833 426.0837285269293, 853.0720447002817 421.27745588787604 C855.0907847757304 416.4711832488228, 858.7712851580183 412.91329549505605, 864.1402201801178 410.8931298626345 C869.5091552022174 408.872964230213, 881.2658442855666 409.1166074777627, 885.2856548328792 409.1564620933467 C889.3054653801919 409.1963167089307, 888.4959440627646 411.0562545702736, 888.2590834639935 411.1322575561382 M861.120828478992 412.41059953633345 C864.6093928588247 408.95000198518926, 871.4856659727227 405.2665241954368, 876.3340621869672 405.57383488091426 C881.1824584012118 405.88114556639175, 886.1232897719432 410.5102308593812, 890.2112057644592 414.2544636491985 C894.2991217569753 417.9986964390158, 900.0402900948758 422.91853439096394, 900.8615581420635 428.039231619818 C901.6828261892512 433.15992884867205, 898.336480316513 440.8243577086529, 895.1388140475851 444.97864702232266 C891.9411477786573 449.13293633599244, 886.037338452019 451.1972808966002, 881.6755605284965 452.96496750183655 C877.313782604974 454.7326541070729, 873.2394057496472 457.05243840629583, 868.9681465064499 455.58476665374064 C864.6968872632526 454.11709490118545, 858.5652860770946 449.40687321986456, 856.0480050693131 444.15893698650535 C853.5307240615317 438.91100075314614, 853.3269601724269 429.5219703392415, 853.8644604597614 424.09714925358554 C854.4019607470959 418.6723281679296, 858.2636961247199 413.65109109946246, 859.2730067933202 411.61001047256985 C860.2823174619205 409.56892984567725, 859.0721432556822 411.68768818636454, 859.9203244713633 411.85066549222984" fill="none" stroke="#5b7a8a" stroke-width="1.8"></path></g><text x="876" y="438.95" text-anchor="middle" font-size="23" font-weight="700" fill="#ffffff" font-family="&#x27;Heebo&#x27;, sans-serif">4</text><g><text x="772.075" y="417.09999999999997" font-family="&#x27;Heebo&#x27;, &#x27;Arial Hebrew&#x27;, &#x27;Noto Sans Hebrew&#x27;, sans-serif" font-size="19" font-weight="700" fill="#3d2c1e" direction="rtl" text-anchor="middle">‏אחריות אנושית</text></g><g><text x="672.3" y="449.79999999999995" font-family="&#x27;Heebo&#x27;, &#x27;Arial Hebrew&#x27;, &#x27;Noto Sans Hebrew&#x27;, sans-serif" font-size="15" font-weight="400" fill="#7a6552" direction="rtl" text-anchor="middle">‏ההחלטה הסופית נשארת תמיד בידי המומחה האנושי</text></g></g></svg>