<svg width="960" height="540" viewBox="0 0 960 540" xmlns="http://www.w3.org/2000/svg" style="background:#fdf8f2"><rect width="960" height="540" fill="#fdf8f2"></rect><g><text x="480" y="46" font-family="&#x27;Heebo&#x27;, &#x27;Arial Hebrew&#x27;, &#x27;Noto Sans Hebrew&#x27;, sans-serif" font-size="28" font-weight="700" fill="#3d2c1e" direction="rtl" text-anchor="middle">‏היררכיית הצרכים של מאסלו</text></g><g><g><path d="M646.5995345534757 69.13243082445115 L722.5683270813897 72.71654576342553 L757.1805463137105 145.35110912006348 L614.5883345844225 150.29872465413064" fill="#c1542f" stroke="none"></path><path d="M650.2858951715752 71.44582710880786 C662.9206929465756 71.52588794291019, 676.9604618443176 67.18588358819484, 719.8096080152318 70.5885032536462 M648.0270016551949 70.39689791342244 C665.5965150275267 70.75429616430775, 681.0042609171011 69.89978724280373, 720.1294385702349 71.12922381004319 M723.3050563661382 67.3758498551324 C729.8947251829039 88.68807568987552, 738.7186115839053 101.34668228039239, 758.8858216313645 146.6959675969556 M721.4465165645815 68.80108891567215 C731.3399251190853 89.96200994145406, 739.4837903405819 112.22802405678016, 757.4103152693249 148.5283655836247 M758.3792024163529 147.67983977217227 C727.3750749028474 149.84132121723704, 692.3334746644273 149.0260341934543, 615.954684898071 147.39471478480846 M755.3848601520992 147.78440198441967 C702.6871430079452 148.64227311933598, 650.0317904611119 148.23507655287347, 614.6084245772101 148.06276650866494 M612.1190938202665 147.5777980806306 C624.5098141495978 123.36992478407265, 632.1789376542997 103.56136342156024, 649.8877005008981 68.1908788504079 M613.5269353718497 149.49733455618843 C624.3393857263495 119.00645053298307, 638.1212997671497 90.26285431464296, 649.661110854242 71.48204511543736" fill="none" stroke="#c1542f" stroke-width="1.8"></path></g><text x="685" y="117" text-anchor="middle" font-size="22" font-weight="800" fill="#ffffff" font-family="&#x27;Heebo&#x27;, sans-serif">1</text><line x1="607.2" y1="109" x2="438" y2="109" stroke="#7a6552" stroke-width="1.2" stroke-dasharray="4 4"></line><g><text x="377.1125" y="94.925" font-family="&#x27;Heebo&#x27;, &#x27;Arial Hebrew&#x27;, &#x27;Noto Sans Hebrew&#x27;, sans-serif" font-size="15.5" font-weight="700" fill="#3d2c1e" direction="rtl" text-anchor="middle">‏הגשמה עצמית</text></g><g><text x="353.02" y="127.075" font-family="&#x27;Heebo&#x27;, &#x27;Arial Hebrew&#x27;, &#x27;Noto Sans Hebrew&#x27;, sans-serif" font-size="13" font-weight="400" fill="#7a6552" direction="rtl" text-anchor="middle">‏מימוש הפוטנציאל האישי</text></g></g><g><g><path d="M611.3990691069514 157.2648616489023 L756.9366541627794 158.43309152685106 L790.361092627421 231.70221824012697 L577.1766691688448 235.59744930826128" fill="#d98841" stroke="none"></path><path d="M612.7717903431505 155.89165421761572 C643.9620296612383 157.77046986976637, 671.9622112248093 155.09046116033568, 757.4192160304635 154.1770065072924 M612.7540033103899 155.29379582684487 C647.8706209678576 157.23526688132063, 681.6637036598102 155.52624903831259, 756.5588771404698 156.75844762008637 M758.4101127322763 153.7516997102648 C765.5994503658078 175.31315137975105, 776.0872231678105 191.03036456078476, 793.7716432627291 234.3919351939112 M756.193033129163 155.1021778313443 C767.6498502381704 181.28701988290808, 779.7775806811638 207.2190481135603, 792.3206305386499 233.55673116724938 M792.7385469874473 236.06386690750134 C742.8944075526837 238.88010838981788, 691.2354406516073 237.45394532243594, 579.5947917857546 235.56510424514553 M791.4364859760447 234.93481724973225 C717.9686098762169 231.2032593732672, 641.9509252839586 233.1148755910603, 578.5517671535072 232.7978380675525 M578.2381876405328 236.1555961612612 C591.0296282991953 202.80284956814535, 605.2078753085993 172.78572684312053, 611.9754010017962 155.3817577008158 M576.5538707436993 235.49466911237687 C588.028771452699 208.17590106596612, 601.2725995342993 181.8887086292859, 613.022221708484 157.46409023087472" fill="none" stroke="#d98841" stroke-width="1.8"></path></g><text x="685" y="203" text-anchor="middle" font-size="22" font-weight="800" fill="#ffffff" font-family="&#x27;Heebo&#x27;, sans-serif">2</text><line x1="571.4" y1="195" x2="438" y2="195" stroke="#7a6552" stroke-width="1.2" stroke-dasharray="4 4"></line><g><text x="402.6875" y="180.925" font-family="&#x27;Heebo&#x27;, &#x27;Arial Hebrew&#x27;, &#x27;Noto Sans Hebrew&#x27;, sans-serif" font-size="15.5" font-weight="700" fill="#3d2c1e" direction="rtl" text-anchor="middle">‏הערכה</text></g><g><text x="363.15999999999997" y="213.075" font-family="&#x27;Heebo&#x27;, &#x27;Arial Hebrew&#x27;, &#x27;Noto Sans Hebrew&#x27;, sans-serif" font-size="13" font-weight="400" fill="#7a6552" direction="rtl" text-anchor="middle">‏כבוד, הכרה והישגים</text></g></g><g><g><path d="M576.198603660427 239.39729247335345 L791.3049812441692 244.1496372902766 L829.5416389411315 318.05332736019045 L539.7650037532673 320.8961739623919" fill="#8a9a5b" stroke="none"></path><path d="M575.5262489721474 240.54589692836853 C619.1843916279643 239.61376343994223, 661.2812285398835 238.72162060073532, 794.7243433601263 243.54418305621405 M577.4708500729322 243.04142675364392 C633.3304952430288 244.5687368495839, 691.3895920597795 244.9504932066675, 792.9396359251015 242.33907241241536 M793.5151690984145 240.1275495653972 C801.3041755487118 260.86422706962657, 813.4558347517159 279.64004684117714, 828.6574648940936 322.0879027908668 M793.9395496937447 241.40326674701646 C802.1397753572558 257.0120298243621, 808.0913710217458 274.01007217034044, 827.2309458079748 318.5850967508741 M827.4465201077593 319.2745530122032 C756.5258784054299 322.48851020938406, 685.5203277323699 325.1729362726457, 543.3100309109471 318.6284919301254 M827.4593398992206 319.5114791989033 C734.1061468358616 322.0124054757668, 640.8489471746935 321.0897439553597, 542.5254440543398 320.1422218335939 M544.3572814607993 318.7333942418918 C550.389442448793 298.909774352218, 557.916812962899 280.2840902646808, 580.0631015026942 242.5726365512237 M542.5808061155491 321.4920036685653 C551.7181571790484 297.3453515989492, 561.4238993014488 273.5145629439289, 576.383332562726 243.44613534631208" fill="none" stroke="#8a9a5b" stroke-width="1.8"></path></g><text x="685" y="289" text-anchor="middle" font-size="22" font-weight="800" fill="#ffffff" font-family="&#x27;Heebo&#x27;, sans-serif">3</text><line x1="535.6" y1="281" x2="438" y2="281" stroke="#7a6552" stroke-width="1.2" stroke-dasharray="4 4"></line><g><text x="398.425" y="266.925" font-family="&#x27;Heebo&#x27;, &#x27;Arial Hebrew&#x27;, &#x27;Noto Sans Hebrew&#x27;, sans-serif" font-size="15.5" font-weight="700" fill="#3d2c1e" direction="rtl" text-anchor="middle">‏שייכות</text></g><g><text x="359.78" y="299.075" font-family="&#x27;Heebo&#x27;, &#x27;Arial Hebrew&#x27;, &#x27;Noto Sans Hebrew&#x27;, sans-serif" font-size="13" font-weight="400" fill="#7a6552" direction="rtl" text-anchor="middle">‏קשרים חברתיים ואהבה</text></g></g><g><g><path d="M540.9981382139027 327.5297232978046 L825.6733083255589 329.8661830537021 L862.7221852548421 404.40443648025393 L508.35333833768965 406.19489861652255" fill="#5b7a8a" stroke="none"></path><path d="M543.2190374035811 330.10222105990255 C599.7819923734677 327.0888985642123, 656.0578477110714 327.57227469422014, 827.0694952046663 327.5120887689007 M542.0592248227268 328.06615760464325 C624.3134465437383 325.92688834737214, 704.5683475694191 325.6111477661955, 829.1687054931156 328.01276090326667 M828.6202254645526 326.5033994205296 C834.6689007316157 347.4893027595021, 848.4844463356212 369.32372912156956, 863.5432865254581 403.7838703878224 M828.6860662583262 327.7043556626886 C838.4497004763409 348.3370397658162, 848.3851613623276 369.0010962271206, 865.1412610772998 406.61346233449876 M862.4936173791305 407.093431364206 C768.2601850424461 410.443311355899, 675.2033349164383 408.369374832694, 507.08382325768304 406.3681271367101 M863.4619389124991 406.40548860427765 C755.990350383197 404.19913516671505, 646.7186707645991 405.07116249004326, 506.5209787045582 405.20573684781203 M504.4763752810657 407.3111923225224 C516.9092565983906 378.34269913629066, 530.9457506171987 349.50845368624107, 542.1508020035923 329.7635154016316 M505.60774148739875 407.48933822475374 C515.4075429053977 386.51480213193224, 524.5751990685984 365.1404172585718, 542.744443416968 329.42818046174943" fill="none" stroke="#5b7a8a" stroke-width="1.8"></path></g><text x="685" y="375" text-anchor="middle" font-size="22" font-weight="800" fill="#ffffff" font-family="&#x27;Heebo&#x27;, sans-serif">4</text><line x1="499.8" y1="367" x2="438" y2="367" stroke="#7a6552" stroke-width="1.2" stroke-dasharray="4 4"></line><g><text x="398.425" y="352.925" font-family="&#x27;Heebo&#x27;, &#x27;Arial Hebrew&#x27;, &#x27;Noto Sans Hebrew&#x27;, sans-serif" font-size="15.5" font-weight="700" fill="#3d2c1e" direction="rtl" text-anchor="middle">‏ביטחון</text></g><g><text x="356.4" y="385.075" font-family="&#x27;Heebo&#x27;, &#x27;Arial Hebrew&#x27;, &#x27;Noto Sans Hebrew&#x27;, sans-serif" font-size="13" font-weight="400" fill="#7a6552" direction="rtl" text-anchor="middle">‏יציבות כלכלית ופיזית</text></g></g><g><g><path d="M505.7976727673784 415.66215412225574 L866.0416354069487 415.58272881712765 L901.9027315685526 490.7555456003174 L470.94167292211205 491.4936232706532" fill="#9a5b7a" stroke="none"></path><path d="M506.07312640870686 414.7816722891422 C575.9629433537286 419.10567109910636, 650.3202374578725 416.7526315961375, 864.2305512247888 415.87130169522834 M506.52181178192984 413.35418321553493 C615.9307648809644 413.52317928703775, 726.0972412572488 412.71390087895685, 863.33967839762 413.7749483908077 M863.7252818306908 412.879249275662 C876.3736259145197 434.1143784493776, 885.8530579195265 459.0074114019619, 898.4291081568226 491.479837984778 M863.4325828229078 414.00544457836077 C874.7596255954262 440.73604970727024, 888.6789517029096 468.0661202839008, 900.0515763466246 491.64182791812345 M900.9794988015605 491.1730101235096 C781.1969874637318 494.40528022424564, 660.2844622038126 495.3990130774637, 470.91616882596225 493.53617802489947 M899.44428301588 491.44309954585526 C779.4474745982232 493.3793216651153, 659.5600960536751 493.8773425741143, 470.53837110416254 492.162129030207 M470.5954691013321 489.888990403153 C476.2690707479883 474.4496239203634, 489.6546882714983 457.00681710780134, 504.2385025044903 416.9543942520395 M468.63467685924843 493.4866727809422 C479.0969286317471 475.6842526649153, 487.72649883574803 456.7662715732148, 506.10555427121 415.4102255771868" fill="none" stroke="#9a5b7a" stroke-width="1.8"></path></g><text x="685" y="461" text-anchor="middle" font-size="22" font-weight="800" fill="#ffffff" font-family="&#x27;Heebo&#x27;, sans-serif">5</text><line x1="464" y1="453" x2="438" y2="453" stroke="#7a6552" stroke-width="1.2" stroke-dasharray="4 4"></line><g><text x="351.5375" y="438.925" font-family="&#x27;Heebo&#x27;, &#x27;Arial Hebrew&#x27;, &#x27;Noto Sans Hebrew&#x27;, sans-serif" font-size="15.5" font-weight="700" fill="#3d2c1e" direction="rtl" text-anchor="middle">‏צרכים פיזיולוגיים</text></g><g><text x="359.78" y="471.075" font-family="&#x27;Heebo&#x27;, &#x27;Arial Hebrew&#x27;, &#x27;Noto Sans Hebrew&#x27;, sans-serif" font-size="13" font-weight="400" fill="#7a6552" direction="rtl" text-anchor="middle">‏מזון, שינה וקורת גג</text></g></g></svg>