<svg width="960" height="470" viewBox="0 0 960 470" xmlns="http://www.w3.org/2000/svg" style="background:#fdf8f2"><rect width="960" height="470" fill="#fdf8f2"></rect><g><text x="480" y="46" font-family="&#x27;Heebo&#x27;, &#x27;Arial Hebrew&#x27;, &#x27;Noto Sans Hebrew&#x27;, sans-serif" font-size="28" font-weight="700" fill="#3d2c1e" direction="rtl" text-anchor="middle">‏אבני דרך בבינה מלאכותית</text></g><g><g><path d="M919.0404051843285 259.3986527237296 C744.0178084584326 257.60123784001473, 566.382347047478 257.47962808545236, 35.25352195411921 259.39824728816745 M919.7404837076366 259.92905132606626 C610.631053781435 255.7042242869258, 302.4392646938563 255.71012430275678, 35.96994239732623 259.6494613344967" fill="none" stroke="#3d2c1e" stroke-width="1.8"></path></g><polyline points="45.90491812587945,255.21537912477646 36,260 45.90491812587945,264.78462087522354" fill="none" stroke="#3d2c1e" stroke-width="3" stroke-linecap="round" stroke-linejoin="round"></polyline></g><g><line x1="890" y1="222" x2="890" y2="260" stroke="#c1542f" stroke-width="2" stroke-dasharray="5 4"></line><g><path d="M880.6168132710018 252.72848844848033 C880.6168132710018 252.72848844848033, 880.6168132710018 252.72848844848033, 880.6168132710018 252.72848844848033 M880.6168132710018 252.72848844848033 C880.6168132710018 252.72848844848033, 880.6168132710018 252.72848844848033, 880.6168132710018 252.72848844848033 M879.1414262353493 260.1811468889408 C886.5407450937663 259.5541352678991, 888.3123777297108 249.94292536142845, 894.4815510428549 250.14377037228064 M880.969336692342 261.6468163828768 C884.3521953473247 259.28035966782386, 888.6437567131442 252.5145587276061, 891.6626338080541 246.98992930498886 M881.3502257639333 270.7228597045878 C889.4601788435431 261.33939890952917, 893.1491065901578 259.3465084794041, 896.2537904220225 251.9303147446451 M881.9530627462804 267.06683458006023 C887.6746907638492 263.84054563375236, 891.3207076836399 257.1501610804335, 896.9471084055083 250.6826955856842 M889.3525035952495 271.4955277341789 C890.0684751606636 268.0332258227197, 891.419092225347 262.79498929370254, 899.2616416168663 255.09500958543856 M887.7782065942229 273.40499118057994 C891.123272418597 269.16647234778134, 893.3252883802236 265.3611917477403, 900.4943884603013 258.21788903006006" fill="none" stroke="#c1542f" stroke-width="1.4"></path><path d="M893.6096775338473 247.23433928619198 C895.9276915185596 247.82186759414577, 898.6400572325427 251.62336919292875, 899.8432863602119 254.0285419983074 C901.046515487881 256.43371480368603, 901.0556645912543 259.2736130502549, 900.8290522998622 261.6653761184638 C900.60244000847 264.05713918667277, 900.203127469097 266.51349081957426, 898.4836126118594 268.379120407561 C896.7640977546217 270.24474999554775, 893.013098970982 272.65692855593716, 890.5119631564361 272.8591536463843 C888.0108273418901 273.06137873683144, 885.4853477647009 271.49320171915866, 883.4767977245837 269.59247095024375 C881.4682476844664 267.69174018132884, 878.9545267866583 264.24564668203163, 878.4606629157324 261.45476903289483 C877.9667990448065 258.663891383758, 879.4094174498725 254.9458587332966, 880.513614499028 252.84720505542293 C881.6178115481835 250.74855137754926, 881.9920960212377 249.4048728535625, 885.0858452106652 248.86284696565278 C888.1795944000927 248.32082107774306, 896.3610991865295 248.48660248201068, 899.076109635593 249.59504972796466 C901.7911200846564 250.70349697391865, 901.4796456055026 255.34784967883598, 901.3759079050461 255.51353044137662 M896.3156310990637 247.9361352068992 C898.8193204022348 248.7945355444017, 900.875998041011 251.37549574340704, 901.8257313225722 253.7118545016257 C902.7754646041334 256.0482132598444, 903.1708314482464 259.1681802144428, 902.0140307884305 261.95428775621116 C900.8572301286147 264.7403952979795, 897.0213013763508 268.6094326200219, 894.8849273636769 270.42849975223584 C892.7485533510029 272.2475668844498, 891.7998292530436 273.14679009110523, 889.1957867123867 272.8686905494947 C886.5917441717298 272.5905910078842, 880.7940305062629 270.64514139747394, 879.2606721197353 268.75990250257274 C877.7273137332078 266.87466360767155, 879.8334260176722 264.09013409429593, 879.9956363932214 261.5572571800874 C880.1578467687706 259.02438026587885, 879.0232059648936 256.1121568673304, 880.2339343730306 253.56264101732134 C881.4446627811676 251.0131251673123, 884.8187986913667 246.66971547233112, 887.2600068420431 246.26016208003304 C889.7012149927195 245.85060868773496, 893.5715555358394 250.3174035681214, 894.8811832770889 251.1053206635328 C896.1908110183384 251.89323775894422, 895.1660957291145 251.08860121634945, 895.1177732895402 250.98766465250145" fill="none" stroke="#c1542f" stroke-width="1.8"></path></g><text x="890" y="292" text-anchor="middle" font-size="15" font-weight="800" fill="#c1542f" font-family="&#x27;Heebo&#x27;, sans-serif">1950</text><g><text x="850.5" y="150.1" font-family="&#x27;Heebo&#x27;, &#x27;Arial Hebrew&#x27;, &#x27;Noto Sans Hebrew&#x27;, sans-serif" font-size="15.5" font-weight="700" fill="#3d2c1e" direction="rtl" text-anchor="middle">‏מבחן טיורינג</text></g><g><text x="850.5" y="175.25" font-family="&#x27;Heebo&#x27;, &#x27;Arial Hebrew&#x27;, &#x27;Noto Sans Hebrew&#x27;, sans-serif" font-size="12.5" font-weight="400" fill="#7a6552" direction="rtl" text-anchor="middle">‏אלן טיורינג מציע מבחן</text><text x="850.5" y="192.125" font-family="&#x27;Heebo&#x27;, &#x27;Arial Hebrew&#x27;, &#x27;Noto Sans Hebrew&#x27;, sans-serif" font-size="12.5" font-weight="400" fill="#7a6552" direction="rtl" text-anchor="middle">‏לאינטליגנציה</text></g></g><g><line x1="685" y1="298" x2="685" y2="260" stroke="#d98841" stroke-width="2" stroke-dasharray="5 4"></line><g><path d="M677.3766389966354 249.63120248900933 C677.3766389966354 249.63120248900933, 677.3766389966354 249.63120248900933, 677.3766389966354 249.63120248900933 M677.3766389966354 249.63120248900933 C677.3766389966354 249.63120248900933, 677.3766389966354 249.63120248900933, 677.3766389966354 249.63120248900933 M675.913419817453 259.73875453239975 C679.4653242797779 258.7887135604021, 683.1653776677447 251.58320754780095, 687.274535400894 249.68722117497808 M675.3964496857391 261.19352657087813 C676.6370797615392 259.94756332368206, 679.8049977362683 255.48833434696132, 685.9085926547725 247.68492314712367 M676.5233031937684 270.41897917200146 C681.4312179796029 263.76669169947274, 683.3156133009635 260.50041386726724, 693.2092519301365 247.92808085657165 M676.3289771584625 267.30692892294644 C679.7316426559307 264.12691660134976, 684.358352814223 259.833283192904, 693.1958878971079 249.6328425386499 M683.0556604040543 272.8732514770178 C687.6746861013829 269.1511825031079, 687.7516841147877 261.69354776596464, 695.352755867478 255.16640678399273 M681.3070664020012 272.49217836981995 C685.58428061725 267.2176755532311, 687.3640764245412 265.4259526740403, 696.4182495543478 257.21216567323575 M694.0563705115069 267.1492431015316 C694.3454643749858 266.3956182757522, 694.7758873144136 266.4039604519177, 695.6629703929323 265.53192342409926 M694.2978023398343 266.86502829717284 C694.5523380229204 266.33547653040415, 694.8578953842936 266.08068943283314, 695.4267322013947 265.3581797145872" fill="none" stroke="#d98841" stroke-width="1.4"></path><path d="M685.3102138831725 246.58221305447748 C687.6558917911484 246.18029277757614, 691.0341972906564 247.4993427303434, 692.8237259070646 249.4522508620121 C694.6132545234728 251.40515899368083, 695.6132427471802 255.623358349312, 696.0473855816222 258.29966184448983 C696.4815284160642 260.97596533966765, 696.6428490844092 263.33146904773423, 695.4285829137169 265.51007183307905 C694.2143167430246 267.6886746184239, 690.9945839569381 270.5234385210753, 688.7617885574683 271.3712785565588 C686.5289931579986 272.2191185920423, 684.4972570554784 271.45162971111654, 682.0318105168984 270.59711204597994 C679.5663639783185 269.74259438084334, 675.349042151002 268.4693125764593, 673.9691093259888 266.24417256573906 C672.5891765009757 264.01903255501884, 673.2296993925339 259.96286504623976, 673.7522135668193 257.2462719816584 C674.2747277411046 254.52967891707706, 674.7920549426249 251.70214587386025, 677.104194371701 249.94461417825093 C679.4163338007772 248.1870824826416, 685.634010039203 246.88313733043213, 687.6250501412763 246.70108180800247 C689.6160902433497 246.5190262855728, 689.0224575662223 248.62276922445952, 689.0504349841411 248.85228104367286 M687.4863440450673 247.6791517883056 C689.7102054599652 247.86989272889815, 692.7233170765528 249.74376925800217, 694.1335258702163 251.74911224538127 C695.5437346638798 253.75445523276036, 696.2257272082968 257.18881640217234, 695.9475968070481 259.7112097125802 C695.6694664057993 262.2336030229881, 694.2021735666644 264.8780991375933, 692.4647434627241 266.88347210782877 C690.7273133587837 268.8888450780642, 688.1822397726341 271.37889805643033, 685.5230161834056 271.743447533993 C682.8637925941771 272.10799701155565, 678.2063542572315 270.49781683181845, 676.5094019273527 269.07076897320474 C674.8124495974738 267.643721114591, 675.4671420649651 265.5773198182598, 675.3413022041325 263.18116038231057 C675.2154623432999 260.7850009463613, 674.6925096687098 257.34621808925283, 675.7543627623572 254.69381235750922 C676.8162158560046 252.0414066257656, 679.5352398262237 248.07944093450502, 681.7124207660171 247.26672599184894 C683.8896017058105 246.45401104919287, 687.5275973972738 249.46396485821094, 688.8174484011179 249.81752270157278 C690.107299404962 250.17108054493463, 689.4140896990125 249.7517275359578, 689.4515267890815 249.38807305202002" fill="none" stroke="#d98841" stroke-width="1.8"></path></g><text x="685" y="240" text-anchor="middle" font-size="15" font-weight="800" fill="#d98841" font-family="&#x27;Heebo&#x27;, sans-serif">1956</text><g><text x="685" y="324" font-family="&#x27;Heebo&#x27;, &#x27;Arial Hebrew&#x27;, &#x27;Noto Sans Hebrew&#x27;, sans-serif" font-size="15.5" font-weight="700" fill="#3d2c1e" direction="rtl" text-anchor="middle">‏ועידת דרטמות</text></g><g><text x="685" y="349.15" font-family="&#x27;Heebo&#x27;, &#x27;Arial Hebrew&#x27;, &#x27;Noto Sans Hebrew&#x27;, sans-serif" font-size="12.5" font-weight="400" fill="#7a6552" direction="rtl" text-anchor="middle">‏הולדת המונח בינה מלאכותית</text></g></g><g><line x1="480" y1="222" x2="480" y2="260" stroke="#8a9a5b" stroke-width="2" stroke-dasharray="5 4"></line><g><path d="M474.04605983599413 247.78034175421453 C474.04605983599413 247.78034175421453, 474.04605983599413 247.78034175421453, 474.04605983599413 247.78034175421453 M474.04605983599413 247.78034175421453 C474.04605983599413 247.78034175421453, 474.04605983599413 247.78034175421453, 474.04605983599413 247.78034175421453 M467.35052574178803 260.5149246380615 C472.461063013618 259.27915746584557, 477.8772211132049 249.2367086735827, 480.11073767839486 250.50355293109877 M469.76588397566826 261.9522322716887 C473.953791202592 259.0043163580628, 478.4555693772069 253.92751728588067, 480.0596611444328 249.5481820494109 M472.9180937953094 269.8521047036458 C477.13812375731544 263.02595627549596, 479.7548222769203 255.56799548562452, 489.4182495229851 251.52698177339713 M471.9266047423506 267.2840293300633 C478.3269024559152 261.7059967741798, 483.635970862983 256.9312781173376, 488.69820347344233 250.5841242965145 M476.66841232658425 269.897400444533 C479.1678547909026 265.91556440817243, 483.5712337530289 261.83853146290306, 491.35346523181477 256.48422920722305 M477.54552132350454 272.8257907837362 C479.95488392962795 269.3153039833572, 484.1124595825837 263.9371388250164, 489.4517057621194 257.4528675410876 M486.8501321785731 270.255162508134 C487.52696014620034 269.1834621355579, 487.4130166545595 268.1921000862899, 489.13473416144205 266.7769876683194 M486.53050153480115 270.06435699178854 C487.09970681146007 269.1602853806139, 487.9394878876191 268.2595433449454, 489.8238409431762 266.6504487576492" fill="none" stroke="#8a9a5b" stroke-width="1.4"></path><path d="M474.25047324957677 247.5451910212169 C476.7709903190676 246.6270655911407, 482.2450841698728 248.06864049796036, 484.82407319244584 248.86885207487072 C487.40306221501885 249.66906365178107, 488.69638303528785 250.19564923176569, 489.72440738501496 252.34646048267896 C490.75243173474206 254.49727173359224, 491.0735206745526 259.10777895610767, 490.99221929080846 261.77371958035036 C490.91091790706434 264.43966020459305, 490.8874384088326 266.4864492605035, 489.2365990825503 268.342104228135 C487.585759756268 270.1977591957665, 483.69008873955084 272.5837041610992, 481.08718333311447 272.9076493861394 C478.4842779266781 273.23159461117956, 475.7093772374458 272.104759509843, 473.61916664393203 270.28577557837616 C471.5289560504183 268.4667916469093, 469.12186504815355 264.5233796880239, 468.54591977203205 261.9937457973383 C467.96997449591055 259.4641119066527, 468.7008169693513 257.608092928261, 470.163494987203 255.1079722342627 C471.62617300505474 252.6078515402644, 476.02366160062843 248.24657274646552, 477.32198787914234 246.99302163334855 C478.62031415765625 245.73947052023158, 477.81289340919545 247.34642114209652, 477.9534526582865 247.5866655555608 M482.70907965952625 247.94565226949283 C485.2438180804442 248.13168730130081, 488.3843304389217 248.48231907893413, 490.1887869353298 250.04928704557537 C491.9932434317379 251.6162550122166, 493.6236869146687 254.5072332785466, 493.5358186379747 257.34746006934034 C493.44795036128073 260.1876868601341, 491.61607589196484 264.97308916656544, 489.661577275166 267.0906477903377 C487.70707865836715 269.20820641410995, 484.40614700550844 269.0407197378793, 481.80882693718166 270.0528118119739 C479.2115068688549 271.0649038860686, 475.8428067492033 274.05043947726176, 474.0776568652053 273.16320023490556 C472.3125069812073 272.27596099254936, 472.3027465521516 267.56866650569185, 471.2179276331936 264.7293763578369 C470.1331087142356 261.8900862099819, 467.40662233241517 258.7802892887145, 467.5687433514574 256.12745934777587 C467.7308643704996 253.4746294068372, 469.6844882737562 249.99143849693536, 472.19065374744696 248.812396712205 C474.69681922113773 247.6333549274746, 481.3974680675583 249.13835881254045, 482.605736193602 249.05320863939357 C483.81400431964573 248.9680584662467, 480.01459959513767 248.23659280901427, 479.4402625037091 248.30149567332367" fill="none" stroke="#8a9a5b" stroke-width="1.8"></path></g><text x="480" y="292" text-anchor="middle" font-size="15" font-weight="800" fill="#8a9a5b" font-family="&#x27;Heebo&#x27;, sans-serif">2012</text><g><text x="480" y="166.975" font-family="&#x27;Heebo&#x27;, &#x27;Arial Hebrew&#x27;, &#x27;Noto Sans Hebrew&#x27;, sans-serif" font-size="15.5" font-weight="700" fill="#3d2c1e" direction="rtl" text-anchor="middle">‏למידה עמוקה</text></g><g><text x="480" y="192.125" font-family="&#x27;Heebo&#x27;, &#x27;Arial Hebrew&#x27;, &#x27;Noto Sans Hebrew&#x27;, sans-serif" font-size="12.5" font-weight="400" fill="#7a6552" direction="rtl" text-anchor="middle">‏פריצת דרך ברשתות נוירונים</text></g></g><g><line x1="275" y1="298" x2="275" y2="260" stroke="#5b7a8a" stroke-width="2" stroke-dasharray="5 4"></line><g><path d="M266.69152485607515 250.38158755225606 C266.69152485607515 250.38158755225606, 266.69152485607515 250.38158755225606, 266.69152485607515 250.38158755225606 M266.69152485607515 250.38158755225606 C266.69152485607515 250.38158755225606, 266.69152485607515 250.38158755225606, 266.69152485607515 250.38158755225606 M264.46057182127254 260.3480969774737 C271.31668424273 258.7766014486186, 273.6036867059352 250.55797271813609, 274.17783356280535 249.84785884952672 M264.7410494664462 261.8445071556433 C267.0597176599067 259.5153623007681, 270.70027605502736 253.78325135999393, 275.36973151752267 247.31403100727624 M268.56922372252535 269.9637888670127 C269.38238753608505 266.1022557407654, 275.6020948396517 257.5923060614236, 280.5957044994895 248.69502216149957 M266.7805716519136 267.93968836890264 C270.6904017266507 262.6227055445194, 276.7947387040807 257.6580447126971, 281.96897643343254 250.70454552565604 M269.537503574789 273.2001080437707 C276.37089333669525 268.4470251799315, 279.9362098479494 261.649543473872, 287.9226319798074 256.9711911017304 M270.24031557068275 273.83796182937493 C273.9528938828003 268.49534613261403, 278.05307072983237 264.7110597416308, 285.8536193535469 256.8627088802165 M279.08821999556596 274.1514380330794 C280.5613812311426 270.832760671672, 280.75349256744016 269.62560159377267, 285.79362851991465 265.52533706098325 M279.4025382788407 273.4092899894916 C281.9301177104892 269.53134321819124, 283.6735732662404 267.09289140292674, 285.5312466045391 265.8878999658627" fill="none" stroke="#5b7a8a" stroke-width="1.4"></path><path d="M282.14305220302083 249.23376417693976 C283.97522881294026 250.77588924966554, 285.4006436183131 254.10187094740687, 285.9681218815756 256.88505467105324 C286.5356001448381 259.66823839469964, 286.4258134775084 263.36632023087964, 285.54792178259567 265.932866518818 C284.6700300876829 268.49941280675637, 283.041332163314 271.07298692686055, 280.7007717120989 272.2843323986835 C278.36021126088383 273.4956778705064, 274.08919175521766 274.25391068508213, 271.5045590753051 273.2009393497555 C268.91992639539257 272.1479680144289, 266.6150707567351 268.2741912231882, 265.1929756326237 265.9665043867236 C263.7708805085123 263.658817550259, 262.7036884184367 261.9736342654802, 262.9719883306367 259.35481833096793 C263.2402882428367 256.73600239645566, 265.0937925733925 252.28217762949464, 266.8027751058237 250.25360877964994 C268.5117576382549 248.22503992980523, 270.1112928169462 246.75924505017946, 273.22588352522394 247.18340523189977 C276.34047423350165 247.60756541362008, 283.43013164245235 251.1045693739107, 285.4903193554901 252.79856986997174 C287.55050706852785 254.4925703660328, 285.64172528549534 257.18832467407213, 285.5870098034506 257.3474082082661 M273.6988952217112 248.7762545423386 C276.43274202155305 248.2445181692807, 279.5537524900245 247.68302708833886, 281.6672034929815 248.71758589874213 C283.7806544959385 249.7521447091454, 285.59061410454996 252.64828145754515, 286.3796012394531 254.9836074047582 C287.16858837435626 257.3189333519713, 287.10798051178523 259.89380306292026, 286.4011263024003 262.7295415820205 C285.6942720930154 265.5652801011207, 284.5613398716657 270.3596947021607, 282.13847598314356 271.9980385193597 C279.7156120946214 273.63638233655865, 274.2895626518354 273.54564883301913, 271.86394297126753 272.5596044852143 C269.43832329069966 271.5735601374095, 268.8760600356419 268.5488532041224, 267.58475789973625 266.08177243253084 C266.2934557638306 263.6146916609393, 264.1810406741037 260.295049016871, 264.11613015583356 257.7571198556651 C264.0512196375634 255.2191906944592, 265.8544658271189 252.33821804642733, 267.1952947901153 250.8541974652953 C268.5361237531118 249.37017688416327, 271.0941969709801 249.36740627134665, 272.1611039338122 248.8529963688729 C273.2280108966444 248.33858646639916, 273.38229917249635 247.9836795344238, 273.5967365671081 247.76773805045278" fill="none" stroke="#5b7a8a" stroke-width="1.8"></path></g><text x="275" y="240" text-anchor="middle" font-size="15" font-weight="800" fill="#5b7a8a" font-family="&#x27;Heebo&#x27;, sans-serif">2017</text><g><text x="275" y="324" font-family="&#x27;Heebo&#x27;, &#x27;Arial Hebrew&#x27;, &#x27;Noto Sans Hebrew&#x27;, sans-serif" font-size="15.5" font-weight="700" fill="#3d2c1e" direction="rtl" text-anchor="middle">‏טרנספורמרים</text></g><g><text x="275" y="349.15" font-family="&#x27;Heebo&#x27;, &#x27;Arial Hebrew&#x27;, &#x27;Noto Sans Hebrew&#x27;, sans-serif" font-size="12.5" font-weight="400" fill="#7a6552" direction="rtl" text-anchor="middle">‏ארכיטקטורה ששינתה את התחום</text></g></g><g><line x1="70" y1="222" x2="70" y2="260" stroke="#9a5b7a" stroke-width="2" stroke-dasharray="5 4"></line><g><path d="M64.70009317286889 247.04480397287796 C64.70009317286889 247.04480397287796, 64.70009317286889 247.04480397287796, 64.70009317286889 247.04480397287796 M64.70009317286889 247.04480397287796 C64.70009317286889 247.04480397287796, 64.70009317286889 247.04480397287796, 64.70009317286889 247.04480397287796 M59.89948573604163 262.4043591342843 C64.37803649420913 259.6693794233062, 69.5659921771086 251.96160988455685, 74.22750551231013 248.68482380835962 M57.83903802100506 264.1327066039643 C64.24826145151542 259.0265202110412, 67.63750728392083 251.16198570427323, 71.33291933830634 246.91561847190064 M64.33498471452988 270.1751202947421 C64.45515212796244 260.54403765507374, 71.3984447939476 259.0524337409794, 76.17567248280156 253.07212897441005 M61.749169626265235 268.69499467210454 C68.6271386054043 261.0032711479902, 72.59104775049437 255.5837374556112, 76.84226240023035 252.43403317960565 M63.8333439457635 275.09304374692533 C74.62775412928818 264.4323872506036, 76.96273483646623 260.96571565627426, 79.00642979258862 257.55780026060023 M67.16185894063065 273.4403609789306 C71.83902953656526 267.04382153192137, 75.5425856634657 262.4436440814373, 79.57016400976298 256.37219748370774 M74.7002439325257 270.86109145028917 C76.21972657130597 268.9977420748604, 79.97304719277025 268.52298861187126, 81.34601832378132 262.61565395926954 M76.0949315720285 271.18813789035596 C77.42002484922658 267.8459736145694, 81.04477884055008 266.12337317594825, 82.33274319013988 262.1516779534788" fill="none" stroke="#9a5b7a" stroke-width="1.4"></path><path d="M74.25967742035603 247.20605548001222 C76.85403797312803 247.80624426011036, 78.788205759028 251.6876604217807, 80.09638076256672 254.26050595950204 C81.40455576610545 256.8333514972234, 82.36567262050659 259.9565556843021, 82.10872744158839 262.64312870634035 C81.85178226267018 265.3297017283786, 80.60540903397619 268.6346266972364, 78.55470968905756 270.37994409173166 C76.50401034413893 272.1252614862269, 72.41100794500642 273.0192860798064, 69.80453137207664 273.11503307331185 C67.19805479914686 273.2107800668173, 65.02404244719472 272.84774088806705, 62.91585025147892 270.95442605276423 C60.807658055763135 269.0611112174614, 57.834118582405544 264.5643876589959, 57.1553781977819 261.7551440614951 C56.476637813158256 258.94590046399435, 57.580321229619564 256.5571692425591, 58.84340794373705 254.09896446775946 C60.10649465785453 251.6407596929598, 62.006512683211625 248.02521321470167, 64.7338984824868 247.00591541269716 C67.46128428176196 245.98661761069266, 72.9690499685911 247.71262037198952, 75.20772273938805 247.9831776557324 C77.446395510185 248.25373493947527, 78.10840985224155 248.37432078604982, 78.16593510726852 248.62925911515444 M64.77234100006699 245.98618511991683 C66.89612029722505 244.74879083422326, 70.53951557576778 246.7184066038509, 72.86154675727934 247.8445716807662 C75.1835779387909 248.9707367576815, 77.0764832999992 250.33413083753152, 78.70452808913637 252.74317558140854 C80.33257287827355 255.15222032528555, 82.7465204900598 259.5549026525389, 82.62981549210242 262.2988401440283 C82.51311049414505 265.0427776355177, 80.14978691490549 267.6893251600192, 78.00429810139212 269.2068005303452 C75.85880928787876 270.7242759006712, 72.0277959966475 271.05075321568063, 69.7568826110222 271.4036923659843 C67.48596922539691 271.75663151628794, 66.50306202593124 272.6142911379817, 64.37881778764034 271.3244354321672 C62.25457354934944 270.0345797263527, 58.0058638040691 266.66448174534304, 57.011417181276784 263.6645581310972 C56.016970558484466 260.6646345168513, 56.9140239327337 255.73030136802743, 58.41213805088644 253.324893746692 C59.91025216903918 250.91948612535657, 64.42959685828187 250.15264099983008, 66.00010189019322 249.2321124030847 C67.57060692210457 248.3115838063393, 67.53335019863866 247.6081634702167, 67.83516824235457 247.8017221662197" fill="none" stroke="#9a5b7a" stroke-width="1.8"></path></g><text x="70" y="292" text-anchor="middle" font-size="15" font-weight="800" fill="#9a5b7a" font-family="&#x27;Heebo&#x27;, sans-serif">2022</text><g><text x="109.5" y="166.975" font-family="&#x27;Heebo&#x27;, &#x27;Arial Hebrew&#x27;, &#x27;Noto Sans Hebrew&#x27;, sans-serif" font-size="15.5" font-weight="700" fill="#3d2c1e" direction="rtl" text-anchor="middle">‏מודלי שפה גדולים</text></g><g><text x="109.5" y="192.125" font-family="&#x27;Heebo&#x27;, &#x27;Arial Hebrew&#x27;, &#x27;Noto Sans Hebrew&#x27;, sans-serif" font-size="12.5" font-weight="400" fill="#7a6552" direction="rtl" text-anchor="middle">‏⁦AI⁩ גנרטיבי לכל אדם</text></g></g></svg>